<mxfile host="app.diagrams.net" agent="Mozilla/5.0 (Windows NT 10.0; Win64; x64) AppleWebKit/537.36 (KHTML, like Gecko) Chrome/129.0.0.0 Safari/537.36 Edg/129.0.0.0" version="24.7.17">
  <diagram name="Страница — 1" id="mekk27BbEF_bqDterf1v">
    <mxGraphModel dx="3695" dy="2681" grid="1" gridSize="10" guides="1" tooltips="1" connect="1" arrows="1" fold="1" page="1" pageScale="1" pageWidth="827" pageHeight="1169" math="0" shadow="0">
      <root>
        <mxCell id="0" />
        <mxCell id="1" parent="0" />
        <mxCell id="Wl-ILKXg40PPsVRRGT6P-1" value="" style="rounded=1;whiteSpace=wrap;html=1;arcSize=10;" vertex="1" parent="1">
          <mxGeometry x="-700" y="40" width="320" height="600" as="geometry" />
        </mxCell>
        <mxCell id="Wl-ILKXg40PPsVRRGT6P-2" value="&lt;span style=&quot;font-size: 14px;&quot;&gt;Пользователь&lt;/span&gt;" style="rounded=1;whiteSpace=wrap;html=1;" vertex="1" parent="1">
          <mxGeometry x="-680" y="80" width="90" height="30" as="geometry" />
        </mxCell>
        <mxCell id="Wl-ILKXg40PPsVRRGT6P-18" value="" style="shape=actor;whiteSpace=wrap;html=1;strokeWidth=0;fontSize=14;fillColor=#FF6666;" vertex="1" parent="1">
          <mxGeometry x="-670" y="285" width="40" height="50" as="geometry" />
        </mxCell>
        <mxCell id="Wl-ILKXg40PPsVRRGT6P-20" value="Ариана Грандэ" style="text;html=1;strokeColor=none;fillColor=none;align=left;verticalAlign=middle;whiteSpace=wrap;rounded=0;strokeWidth=1;fontSize=16;" vertex="1" parent="1">
          <mxGeometry x="-620" y="270" width="160" height="30" as="geometry" />
        </mxCell>
        <mxCell id="Wl-ILKXg40PPsVRRGT6P-21" value="Вечное сияние" style="text;html=1;strokeColor=none;fillColor=none;align=left;verticalAlign=middle;whiteSpace=wrap;rounded=0;strokeWidth=1;fontSize=12;" vertex="1" parent="1">
          <mxGeometry x="-620" y="300" width="120" height="20" as="geometry" />
        </mxCell>
        <mxCell id="Wl-ILKXg40PPsVRRGT6P-29" value="" style="rounded=0;whiteSpace=wrap;html=1;strokeWidth=0;fontSize=14;fillColor=#FAFFFF;strokeColor=none;" vertex="1" parent="1">
          <mxGeometry x="-680" y="350" width="280" height="100" as="geometry" />
        </mxCell>
        <mxCell id="Wl-ILKXg40PPsVRRGT6P-30" value="" style="shape=actor;whiteSpace=wrap;html=1;strokeWidth=0;fontSize=14;fillColor=#FFFF99;" vertex="1" parent="1">
          <mxGeometry x="-670" y="375" width="40" height="50" as="geometry" />
        </mxCell>
        <mxCell id="Wl-ILKXg40PPsVRRGT6P-32" value="Леди Гага" style="text;html=1;strokeColor=none;fillColor=none;align=left;verticalAlign=middle;whiteSpace=wrap;rounded=0;strokeWidth=1;fontSize=16;" vertex="1" parent="1">
          <mxGeometry x="-620" y="360" width="160" height="30" as="geometry" />
        </mxCell>
        <mxCell id="Wl-ILKXg40PPsVRRGT6P-33" value="Джокер" style="text;html=1;strokeColor=none;fillColor=none;align=left;verticalAlign=middle;whiteSpace=wrap;rounded=0;strokeWidth=1;fontSize=12;" vertex="1" parent="1">
          <mxGeometry x="-620" y="390" width="120" height="20" as="geometry" />
        </mxCell>
        <mxCell id="Wl-ILKXg40PPsVRRGT6P-41" value="" style="shape=actor;whiteSpace=wrap;html=1;strokeWidth=0;fontSize=14;fillColor=#CCCCCC;" vertex="1" parent="1">
          <mxGeometry x="-670" y="455" width="40" height="50" as="geometry" />
        </mxCell>
        <mxCell id="Wl-ILKXg40PPsVRRGT6P-43" value="И другие" style="text;html=1;strokeColor=none;fillColor=none;align=left;verticalAlign=middle;whiteSpace=wrap;rounded=0;strokeWidth=1;fontSize=16;" vertex="1" parent="1">
          <mxGeometry x="-620" y="440" width="160" height="30" as="geometry" />
        </mxCell>
        <mxCell id="Wl-ILKXg40PPsVRRGT6P-44" value="Название альбома2" style="text;html=1;strokeColor=none;fillColor=none;align=left;verticalAlign=middle;whiteSpace=wrap;rounded=0;strokeWidth=1;fontSize=12;" vertex="1" parent="1">
          <mxGeometry x="-620" y="470" width="120" height="20" as="geometry" />
        </mxCell>
        <mxCell id="Wl-ILKXg40PPsVRRGT6P-52" value="История прослушивания" style="text;html=1;strokeColor=none;fillColor=none;align=left;verticalAlign=middle;whiteSpace=wrap;rounded=0;strokeWidth=1;fontSize=12;" vertex="1" parent="1">
          <mxGeometry x="-680" y="120" width="150" height="30" as="geometry" />
        </mxCell>
        <mxCell id="Wl-ILKXg40PPsVRRGT6P-85" value="" style="rounded=1;whiteSpace=wrap;html=1;arcSize=50;strokeWidth=0;fillColor=#CCCCCC;" vertex="1" parent="1">
          <mxGeometry x="-400" y="145" width="10" height="40" as="geometry" />
        </mxCell>
        <mxCell id="Wl-ILKXg40PPsVRRGT6P-219" style="edgeStyle=orthogonalEdgeStyle;rounded=0;orthogonalLoop=1;jettySize=auto;html=1;strokeColor=#666666;fontSize=14;fontColor=#999999;" edge="1" parent="1" source="Wl-ILKXg40PPsVRRGT6P-2" target="Wl-ILKXg40PPsVRRGT6P-277">
          <mxGeometry relative="1" as="geometry">
            <Array as="points">
              <mxPoint x="-640" y="-50" />
              <mxPoint x="-80" y="-50" />
            </Array>
            <mxPoint x="-370" y="-35" as="sourcePoint" />
            <mxPoint x="-270" y="94.99999999999955" as="targetPoint" />
          </mxGeometry>
        </mxCell>
        <mxCell id="Wl-ILKXg40PPsVRRGT6P-278" value="&lt;font style=&quot;font-size: 16px;&quot;&gt;При нажатии либо свайпом слева направо открывает вкладку с профилем&lt;/font&gt;" style="edgeLabel;html=1;align=center;verticalAlign=middle;resizable=0;points=[];" vertex="1" connectable="0" parent="Wl-ILKXg40PPsVRRGT6P-219">
          <mxGeometry x="-0.0213" y="-2" relative="1" as="geometry">
            <mxPoint as="offset" />
          </mxGeometry>
        </mxCell>
        <mxCell id="Wl-ILKXg40PPsVRRGT6P-220" value="" style="rounded=0;whiteSpace=wrap;html=1;strokeWidth=0;fontSize=14;fillColor=#FEFFF5;strokeColor=default;" vertex="1" parent="1">
          <mxGeometry x="-680" y="150" width="120" height="90" as="geometry" />
        </mxCell>
        <mxCell id="Wl-ILKXg40PPsVRRGT6P-223" value="Альбом1" style="text;html=1;strokeColor=none;fillColor=none;align=left;verticalAlign=middle;whiteSpace=wrap;rounded=0;strokeWidth=1;fontSize=16;" vertex="1" parent="1">
          <mxGeometry x="-650" y="170" width="88.95" height="30" as="geometry" />
        </mxCell>
        <mxCell id="Wl-ILKXg40PPsVRRGT6P-224" value="Исполнитель1" style="text;html=1;strokeColor=none;fillColor=none;align=left;verticalAlign=middle;whiteSpace=wrap;rounded=0;strokeWidth=1;fontSize=12;" vertex="1" parent="1">
          <mxGeometry x="-648.95" y="200" width="90" height="20" as="geometry" />
        </mxCell>
        <mxCell id="Wl-ILKXg40PPsVRRGT6P-243" value="&lt;font size=&quot;1&quot; style=&quot;&quot;&gt;&lt;b style=&quot;font-size: 30px;&quot;&gt;Топ 10 треков месяца&lt;/b&gt;&lt;/font&gt;" style="text;html=1;strokeColor=none;fillColor=none;align=left;verticalAlign=middle;whiteSpace=wrap;rounded=0;fontSize=18;" vertex="1" parent="1">
          <mxGeometry x="-6.950000000000003" y="-180" width="680" height="40" as="geometry" />
        </mxCell>
        <mxCell id="Wl-ILKXg40PPsVRRGT6P-247" value="&lt;span style=&quot;font-size: 14px;&quot;&gt;Все&lt;/span&gt;" style="rounded=1;whiteSpace=wrap;html=1;fillColor=#d5e8d4;strokeColor=#82b366;" vertex="1" parent="1">
          <mxGeometry x="-580" y="80" width="30" height="30" as="geometry" />
        </mxCell>
        <mxCell id="Wl-ILKXg40PPsVRRGT6P-248" value="&lt;span style=&quot;font-size: 14px;&quot;&gt;Музыка&lt;/span&gt;" style="rounded=1;whiteSpace=wrap;html=1;" vertex="1" parent="1">
          <mxGeometry x="-540" y="80" width="60" height="30" as="geometry" />
        </mxCell>
        <mxCell id="Wl-ILKXg40PPsVRRGT6P-249" value="&lt;span style=&quot;font-size: 14px;&quot;&gt;Подкасты&lt;/span&gt;" style="rounded=1;whiteSpace=wrap;html=1;" vertex="1" parent="1">
          <mxGeometry x="-468.95" y="80" width="70" height="30" as="geometry" />
        </mxCell>
        <mxCell id="Wl-ILKXg40PPsVRRGT6P-250" value="" style="shape=umlActor;verticalLabelPosition=bottom;verticalAlign=top;html=1;outlineConnect=0;" vertex="1" parent="1">
          <mxGeometry x="-670" y="170" width="20" height="40" as="geometry" />
        </mxCell>
        <mxCell id="Wl-ILKXg40PPsVRRGT6P-251" value="" style="rounded=0;whiteSpace=wrap;html=1;strokeWidth=0;fontSize=14;fillColor=#FEFFF5;strokeColor=default;" vertex="1" parent="1">
          <mxGeometry x="-532.1" y="150" width="120" height="90" as="geometry" />
        </mxCell>
        <mxCell id="Wl-ILKXg40PPsVRRGT6P-252" value="Плейлист1" style="text;html=1;strokeColor=none;fillColor=none;align=left;verticalAlign=middle;whiteSpace=wrap;rounded=0;strokeWidth=1;fontSize=16;" vertex="1" parent="1">
          <mxGeometry x="-500" y="170" width="86.85" height="30" as="geometry" />
        </mxCell>
        <mxCell id="Wl-ILKXg40PPsVRRGT6P-253" value="Исполнитель1" style="text;html=1;strokeColor=none;fillColor=none;align=left;verticalAlign=middle;whiteSpace=wrap;rounded=0;strokeWidth=1;fontSize=12;" vertex="1" parent="1">
          <mxGeometry x="-501.04999999999995" y="200" width="90" height="20" as="geometry" />
        </mxCell>
        <mxCell id="Wl-ILKXg40PPsVRRGT6P-254" value="" style="shape=umlActor;verticalLabelPosition=bottom;verticalAlign=top;html=1;outlineConnect=0;" vertex="1" parent="1">
          <mxGeometry x="-522.1" y="170" width="20" height="40" as="geometry" />
        </mxCell>
        <mxCell id="Wl-ILKXg40PPsVRRGT6P-255" value="Новые релизы" style="text;html=1;strokeColor=none;fillColor=none;align=left;verticalAlign=middle;whiteSpace=wrap;rounded=0;strokeWidth=1;fontSize=12;" vertex="1" parent="1">
          <mxGeometry x="-682.1" y="240" width="150" height="30" as="geometry" />
        </mxCell>
        <mxCell id="Wl-ILKXg40PPsVRRGT6P-256" value="" style="shape=umlActor;verticalLabelPosition=bottom;verticalAlign=top;html=1;outlineConnect=0;" vertex="1" parent="1">
          <mxGeometry x="-487.1" y="365" width="30" height="60" as="geometry" />
        </mxCell>
        <mxCell id="Wl-ILKXg40PPsVRRGT6P-257" value="" style="shape=umlActor;verticalLabelPosition=bottom;verticalAlign=top;html=1;outlineConnect=0;" vertex="1" parent="1">
          <mxGeometry x="-442" y="365" width="30" height="60" as="geometry" />
        </mxCell>
        <mxCell id="Wl-ILKXg40PPsVRRGT6P-258" value="" style="shape=umlActor;verticalLabelPosition=bottom;verticalAlign=top;html=1;outlineConnect=0;" vertex="1" parent="1">
          <mxGeometry x="-457" y="275" width="30" height="60" as="geometry" />
        </mxCell>
        <mxCell id="Wl-ILKXg40PPsVRRGT6P-259" value="" style="shape=umlActor;verticalLabelPosition=bottom;verticalAlign=top;html=1;outlineConnect=0;" vertex="1" parent="1">
          <mxGeometry x="-461" y="440" width="30" height="60" as="geometry" />
        </mxCell>
        <mxCell id="Wl-ILKXg40PPsVRRGT6P-262" value="" style="sketch=0;pointerEvents=1;shadow=0;dashed=0;html=1;strokeColor=#82b366;fillColor=#d5e8d4;labelPosition=center;verticalLabelPosition=bottom;verticalAlign=top;outlineConnect=0;align=center;shape=mxgraph.office.concepts.home;" vertex="1" parent="1">
          <mxGeometry x="-653.3199999999999" y="576" width="28.74" height="28" as="geometry" />
        </mxCell>
        <mxCell id="Wl-ILKXg40PPsVRRGT6P-264" value="" style="rounded=0;whiteSpace=wrap;html=1;rotation=90;" vertex="1" parent="1">
          <mxGeometry x="-465" y="585" width="30" height="10" as="geometry" />
        </mxCell>
        <mxCell id="Wl-ILKXg40PPsVRRGT6P-265" value="" style="rounded=0;whiteSpace=wrap;html=1;rotation=90;" vertex="1" parent="1">
          <mxGeometry x="-455" y="585" width="30" height="10" as="geometry" />
        </mxCell>
        <mxCell id="Wl-ILKXg40PPsVRRGT6P-266" value="" style="rounded=0;whiteSpace=wrap;html=1;rotation=90;" vertex="1" parent="1">
          <mxGeometry x="-445" y="585" width="30" height="10" as="geometry" />
        </mxCell>
        <mxCell id="Wl-ILKXg40PPsVRRGT6P-267" value="Главная" style="text;html=1;strokeColor=none;fillColor=none;align=left;verticalAlign=middle;whiteSpace=wrap;rounded=0;strokeWidth=1;fontSize=16;" vertex="1" parent="1">
          <mxGeometry x="-673.95" y="600" width="70" height="30" as="geometry" />
        </mxCell>
        <mxCell id="Wl-ILKXg40PPsVRRGT6P-270" value="Библиотека" style="text;html=1;strokeColor=none;fillColor=none;align=left;verticalAlign=middle;whiteSpace=wrap;rounded=0;strokeWidth=1;fontSize=16;" vertex="1" parent="1">
          <mxGeometry x="-488.95" y="600" width="70" height="30" as="geometry" />
        </mxCell>
        <mxCell id="Wl-ILKXg40PPsVRRGT6P-271" value="" style="rounded=1;whiteSpace=wrap;html=1;" vertex="1" parent="1">
          <mxGeometry x="-689" y="515" width="299" height="45" as="geometry" />
        </mxCell>
        <mxCell id="Wl-ILKXg40PPsVRRGT6P-272" value="" style="shape=actor;whiteSpace=wrap;html=1;strokeWidth=0;fontSize=14;fillColor=#CCCCCC;" vertex="1" parent="1">
          <mxGeometry x="-680" y="520" width="28" height="35" as="geometry" />
        </mxCell>
        <mxCell id="Wl-ILKXg40PPsVRRGT6P-273" value="Исполнитель1" style="text;html=1;strokeColor=none;fillColor=none;align=left;verticalAlign=middle;whiteSpace=wrap;rounded=0;strokeWidth=1;fontSize=12;" vertex="1" parent="1">
          <mxGeometry x="-648.95" y="540" width="90" height="20" as="geometry" />
        </mxCell>
        <mxCell id="Wl-ILKXg40PPsVRRGT6P-274" value="Название" style="text;html=1;strokeColor=none;fillColor=none;align=left;verticalAlign=middle;whiteSpace=wrap;rounded=0;strokeWidth=1;fontSize=12;" vertex="1" parent="1">
          <mxGeometry x="-648.95" y="520" width="90" height="20" as="geometry" />
        </mxCell>
        <mxCell id="Wl-ILKXg40PPsVRRGT6P-275" value="" style="html=1;verticalLabelPosition=bottom;align=center;labelBackgroundColor=#ffffff;verticalAlign=top;strokeWidth=2;strokeColor=#000000;shadow=0;dashed=0;shape=mxgraph.ios7.icons.play;" vertex="1" parent="1">
          <mxGeometry x="-427" y="526" width="21" height="24" as="geometry" />
        </mxCell>
        <mxCell id="Wl-ILKXg40PPsVRRGT6P-277" value="" style="rounded=1;whiteSpace=wrap;html=1;arcSize=10;" vertex="1" parent="1">
          <mxGeometry x="-238.95" y="45" width="320" height="600" as="geometry" />
        </mxCell>
        <mxCell id="Wl-ILKXg40PPsVRRGT6P-279" value="" style="ellipse;whiteSpace=wrap;html=1;aspect=fixed;" vertex="1" parent="1">
          <mxGeometry x="-220" y="50" width="60" height="60" as="geometry" />
        </mxCell>
        <mxCell id="Wl-ILKXg40PPsVRRGT6P-280" value="Пользователь" style="text;html=1;strokeColor=none;fillColor=none;align=left;verticalAlign=middle;whiteSpace=wrap;rounded=0;strokeWidth=1;fontSize=16;" vertex="1" parent="1">
          <mxGeometry x="-155.25" y="50" width="160" height="30" as="geometry" />
        </mxCell>
        <mxCell id="Wl-ILKXg40PPsVRRGT6P-281" value="&lt;font color=&quot;#b3b3b3&quot; style=&quot;font-size: 14px;&quot;&gt;Просмотреть профиль&lt;/font&gt;" style="text;html=1;strokeColor=none;fillColor=none;align=left;verticalAlign=middle;whiteSpace=wrap;rounded=0;strokeWidth=1;fontSize=16;" vertex="1" parent="1">
          <mxGeometry x="-155.25" y="70" width="185.25" height="30" as="geometry" />
        </mxCell>
        <mxCell id="Wl-ILKXg40PPsVRRGT6P-282" value="" style="verticalLabelPosition=bottom;verticalAlign=top;html=1;shape=mxgraph.basic.flash" vertex="1" parent="1">
          <mxGeometry x="-205" y="130" width="30" height="50" as="geometry" />
        </mxCell>
        <mxCell id="Wl-ILKXg40PPsVRRGT6P-283" value="" style="endArrow=none;html=1;rounded=0;" edge="1" parent="1">
          <mxGeometry width="50" height="50" relative="1" as="geometry">
            <mxPoint x="-210" y="250" as="sourcePoint" />
            <mxPoint x="-210" y="200" as="targetPoint" />
          </mxGeometry>
        </mxCell>
        <mxCell id="Wl-ILKXg40PPsVRRGT6P-284" value="" style="endArrow=none;html=1;rounded=0;" edge="1" parent="1">
          <mxGeometry width="50" height="50" relative="1" as="geometry">
            <mxPoint x="-210" y="249.58" as="sourcePoint" />
            <mxPoint x="-160" y="249.58" as="targetPoint" />
          </mxGeometry>
        </mxCell>
        <mxCell id="Wl-ILKXg40PPsVRRGT6P-285" value="" style="endArrow=none;html=1;rounded=0;" edge="1" parent="1">
          <mxGeometry width="50" height="50" relative="1" as="geometry">
            <mxPoint x="-200" y="245" as="sourcePoint" />
            <mxPoint x="-190" y="230" as="targetPoint" />
          </mxGeometry>
        </mxCell>
        <mxCell id="Wl-ILKXg40PPsVRRGT6P-286" value="" style="endArrow=none;html=1;rounded=0;" edge="1" parent="1">
          <mxGeometry width="50" height="50" relative="1" as="geometry">
            <mxPoint x="-190" y="230" as="sourcePoint" />
            <mxPoint x="-180" y="240" as="targetPoint" />
          </mxGeometry>
        </mxCell>
        <mxCell id="Wl-ILKXg40PPsVRRGT6P-287" value="" style="endArrow=none;html=1;rounded=0;" edge="1" parent="1">
          <mxGeometry width="50" height="50" relative="1" as="geometry">
            <mxPoint x="-180" y="240" as="sourcePoint" />
            <mxPoint x="-170" y="210" as="targetPoint" />
          </mxGeometry>
        </mxCell>
        <mxCell id="Wl-ILKXg40PPsVRRGT6P-288" value="" style="html=1;verticalLabelPosition=bottom;align=center;labelBackgroundColor=#ffffff;verticalAlign=top;strokeWidth=2;strokeColor=#000000;shadow=0;dashed=0;shape=mxgraph.ios7.icons.clock;" vertex="1" parent="1">
          <mxGeometry x="-212.5" y="282.5" width="45" height="45" as="geometry" />
        </mxCell>
        <mxCell id="Wl-ILKXg40PPsVRRGT6P-289" value="" style="sketch=0;pointerEvents=1;shadow=0;dashed=0;html=1;strokeColor=none;labelPosition=center;verticalLabelPosition=bottom;verticalAlign=top;align=center;fillColor=#505050;shape=mxgraph.mscae.enterprise.settings" vertex="1" parent="1">
          <mxGeometry x="-215" y="350" width="50" height="50" as="geometry" />
        </mxCell>
        <mxCell id="Wl-ILKXg40PPsVRRGT6P-290" value="Что нового" style="text;html=1;strokeColor=none;fillColor=none;align=left;verticalAlign=middle;whiteSpace=wrap;rounded=0;strokeWidth=1;fontSize=16;" vertex="1" parent="1">
          <mxGeometry x="-158.95" y="140" width="160" height="30" as="geometry" />
        </mxCell>
        <mxCell id="Wl-ILKXg40PPsVRRGT6P-291" value="Звуковая капсула" style="text;html=1;strokeColor=none;fillColor=none;align=left;verticalAlign=middle;whiteSpace=wrap;rounded=0;strokeWidth=1;fontSize=16;" vertex="1" parent="1">
          <mxGeometry x="-155.25" y="210" width="160" height="30" as="geometry" />
        </mxCell>
        <mxCell id="Wl-ILKXg40PPsVRRGT6P-292" value="История прослушивания" style="text;html=1;strokeColor=none;fillColor=none;align=left;verticalAlign=middle;whiteSpace=wrap;rounded=0;strokeWidth=1;fontSize=16;" vertex="1" parent="1">
          <mxGeometry x="-155.25" y="290" width="195.25" height="30" as="geometry" />
        </mxCell>
        <mxCell id="Wl-ILKXg40PPsVRRGT6P-293" value="Настройки" style="text;html=1;strokeColor=none;fillColor=none;align=left;verticalAlign=middle;whiteSpace=wrap;rounded=0;strokeWidth=1;fontSize=16;" vertex="1" parent="1">
          <mxGeometry x="-155.25" y="360" width="160" height="30" as="geometry" />
        </mxCell>
        <mxCell id="Wl-ILKXg40PPsVRRGT6P-294" value="" style="rounded=1;whiteSpace=wrap;html=1;arcSize=10;" vertex="1" parent="1">
          <mxGeometry x="270" y="30" width="320" height="600" as="geometry" />
        </mxCell>
        <mxCell id="Wl-ILKXg40PPsVRRGT6P-295" value="" style="rounded=1;whiteSpace=wrap;html=1;" vertex="1" parent="1">
          <mxGeometry x="500" y="60" width="70" height="70" as="geometry" />
        </mxCell>
        <mxCell id="Wl-ILKXg40PPsVRRGT6P-296" value="" style="curved=1;endArrow=classic;html=1;rounded=0;" edge="1" parent="1">
          <mxGeometry width="50" height="50" relative="1" as="geometry">
            <mxPoint x="510" y="120" as="sourcePoint" />
            <mxPoint x="560" y="70" as="targetPoint" />
            <Array as="points">
              <mxPoint x="560" y="120" />
              <mxPoint x="510" y="70" />
            </Array>
          </mxGeometry>
        </mxCell>
        <mxCell id="Wl-ILKXg40PPsVRRGT6P-297" value="Звуковая капсула" style="text;html=1;strokeColor=none;fillColor=none;align=left;verticalAlign=middle;whiteSpace=wrap;rounded=0;strokeWidth=1;fontSize=16;" vertex="1" parent="1">
          <mxGeometry x="330" y="50" width="160" height="30" as="geometry" />
        </mxCell>
        <mxCell id="Wl-ILKXg40PPsVRRGT6P-298" value="Октябрь 2024" style="text;html=1;strokeColor=none;fillColor=none;align=left;verticalAlign=middle;whiteSpace=wrap;rounded=0;strokeWidth=1;fontSize=16;" vertex="1" parent="1">
          <mxGeometry x="299" y="120" width="160" height="30" as="geometry" />
        </mxCell>
        <mxCell id="Wl-ILKXg40PPsVRRGT6P-299" value="" style="rounded=1;whiteSpace=wrap;html=1;" vertex="1" parent="1">
          <mxGeometry x="299" y="150" width="271" height="65" as="geometry" />
        </mxCell>
        <mxCell id="Wl-ILKXg40PPsVRRGT6P-300" value="Время прослушивания" style="text;html=1;strokeColor=none;fillColor=none;align=left;verticalAlign=middle;whiteSpace=wrap;rounded=0;strokeWidth=1;fontSize=16;" vertex="1" parent="1">
          <mxGeometry x="310" y="150" width="190" height="30" as="geometry" />
        </mxCell>
        <mxCell id="Wl-ILKXg40PPsVRRGT6P-301" value="&lt;font color=&quot;#99ff99&quot;&gt;2534 минут&lt;/font&gt;" style="text;html=1;strokeColor=none;fillColor=none;align=left;verticalAlign=middle;whiteSpace=wrap;rounded=0;strokeWidth=1;fontSize=16;" vertex="1" parent="1">
          <mxGeometry x="310" y="180" width="160" height="30" as="geometry" />
        </mxCell>
        <mxCell id="Wl-ILKXg40PPsVRRGT6P-302" value="" style="rounded=1;whiteSpace=wrap;html=1;" vertex="1" parent="1">
          <mxGeometry x="289" y="230" width="141" height="80" as="geometry" />
        </mxCell>
        <mxCell id="Wl-ILKXg40PPsVRRGT6P-303" value="" style="shape=actor;whiteSpace=wrap;html=1;strokeWidth=0;fontSize=14;fillColor=#FF6666;" vertex="1" parent="1">
          <mxGeometry x="336.32000000000005" y="260" width="40" height="50" as="geometry" />
        </mxCell>
        <mxCell id="Wl-ILKXg40PPsVRRGT6P-304" value="Топ исполнитель" style="text;html=1;strokeColor=none;fillColor=none;align=left;verticalAlign=middle;whiteSpace=wrap;rounded=0;strokeWidth=1;fontSize=16;" vertex="1" parent="1">
          <mxGeometry x="292.65" y="230" width="127.35" height="30" as="geometry" />
        </mxCell>
        <mxCell id="Wl-ILKXg40PPsVRRGT6P-305" value="" style="rounded=1;whiteSpace=wrap;html=1;" vertex="1" parent="1">
          <mxGeometry x="440" y="230" width="141" height="80" as="geometry" />
        </mxCell>
        <mxCell id="Wl-ILKXg40PPsVRRGT6P-306" value="" style="shape=actor;whiteSpace=wrap;html=1;strokeWidth=0;fontSize=14;fillColor=#FF6666;" vertex="1" parent="1">
          <mxGeometry x="487.32000000000016" y="260" width="40" height="50" as="geometry" />
        </mxCell>
        <mxCell id="Wl-ILKXg40PPsVRRGT6P-307" value="Топ песня" style="text;html=1;strokeColor=none;fillColor=none;align=center;verticalAlign=middle;whiteSpace=wrap;rounded=0;strokeWidth=1;fontSize=16;" vertex="1" parent="1">
          <mxGeometry x="443.6500000000001" y="230" width="127.35" height="30" as="geometry" />
        </mxCell>
        <mxCell id="Wl-ILKXg40PPsVRRGT6P-308" value="" style="rounded=1;whiteSpace=wrap;html=1;" vertex="1" parent="1">
          <mxGeometry x="289" y="320" width="291" height="150" as="geometry" />
        </mxCell>
        <mxCell id="Wl-ILKXg40PPsVRRGT6P-309" value="35 часов слушал этот плейлист" style="text;html=1;strokeColor=none;fillColor=none;align=left;verticalAlign=middle;whiteSpace=wrap;rounded=0;strokeWidth=1;fontSize=16;" vertex="1" parent="1">
          <mxGeometry x="305" y="330" width="255" height="30" as="geometry" />
        </mxCell>
        <mxCell id="Wl-ILKXg40PPsVRRGT6P-310" value="" style="ellipse;whiteSpace=wrap;html=1;" vertex="1" parent="1">
          <mxGeometry x="388.79999999999995" y="370" width="77" height="80" as="geometry" />
        </mxCell>
        <mxCell id="Wl-ILKXg40PPsVRRGT6P-4" value="" style="ellipse;whiteSpace=wrap;html=1;aspect=fixed;strokeWidth=2;" vertex="1" parent="1">
          <mxGeometry x="-550" y="580" width="20" height="20" as="geometry" />
        </mxCell>
        <mxCell id="Wl-ILKXg40PPsVRRGT6P-5" value="" style="endArrow=none;html=1;rounded=0;strokeWidth=2;" edge="1" parent="1" target="Wl-ILKXg40PPsVRRGT6P-4">
          <mxGeometry width="50" height="50" relative="1" as="geometry">
            <mxPoint x="-530" y="610" as="sourcePoint" />
            <mxPoint x="-480" y="590" as="targetPoint" />
          </mxGeometry>
        </mxCell>
        <mxCell id="Wl-ILKXg40PPsVRRGT6P-268" value="Поиск" style="text;html=1;strokeColor=none;fillColor=none;align=left;verticalAlign=middle;whiteSpace=wrap;rounded=0;strokeWidth=1;fontSize=16;" vertex="1" parent="1">
          <mxGeometry x="-564.2" y="600" width="70" height="30" as="geometry" />
        </mxCell>
        <mxCell id="Wl-ILKXg40PPsVRRGT6P-315" value="" style="edgeStyle=orthogonalEdgeStyle;rounded=0;orthogonalLoop=1;jettySize=auto;html=1;exitX=1;exitY=0.5;exitDx=0;exitDy=0;entryX=0.005;entryY=0.326;entryDx=0;entryDy=0;entryPerimeter=0;" edge="1" parent="1" source="Wl-ILKXg40PPsVRRGT6P-291" target="Wl-ILKXg40PPsVRRGT6P-294">
          <mxGeometry relative="1" as="geometry">
            <mxPoint x="-261.05" y="327.72" as="targetPoint" />
            <mxPoint x="-320" y="620" as="sourcePoint" />
          </mxGeometry>
        </mxCell>
        <mxCell id="Wl-ILKXg40PPsVRRGT6P-316" value="&lt;font style=&quot;font-size: 12px;&quot;&gt;При нажатии переходит на новую вкладку&lt;/font&gt;" style="edgeLabel;html=1;align=center;verticalAlign=middle;resizable=0;points=[];" vertex="1" connectable="0" parent="Wl-ILKXg40PPsVRRGT6P-315">
          <mxGeometry x="-0.0084" y="1" relative="1" as="geometry">
            <mxPoint x="-1" y="-1" as="offset" />
          </mxGeometry>
        </mxCell>
        <mxCell id="Wl-ILKXg40PPsVRRGT6P-317" value="" style="sketch=0;pointerEvents=1;shadow=0;dashed=0;html=1;strokeColor=none;fillColor=#505050;labelPosition=center;verticalLabelPosition=bottom;verticalAlign=top;outlineConnect=0;align=center;shape=mxgraph.office.concepts.home;" vertex="1" parent="1">
          <mxGeometry x="318.68000000000006" y="566" width="28.74" height="28" as="geometry" />
        </mxCell>
        <mxCell id="Wl-ILKXg40PPsVRRGT6P-318" value="" style="rounded=0;whiteSpace=wrap;html=1;rotation=90;" vertex="1" parent="1">
          <mxGeometry x="507" y="575" width="30" height="10" as="geometry" />
        </mxCell>
        <mxCell id="Wl-ILKXg40PPsVRRGT6P-319" value="" style="rounded=0;whiteSpace=wrap;html=1;rotation=90;" vertex="1" parent="1">
          <mxGeometry x="517" y="575" width="30" height="10" as="geometry" />
        </mxCell>
        <mxCell id="Wl-ILKXg40PPsVRRGT6P-320" value="" style="rounded=0;whiteSpace=wrap;html=1;rotation=90;" vertex="1" parent="1">
          <mxGeometry x="527" y="575" width="30" height="10" as="geometry" />
        </mxCell>
        <mxCell id="Wl-ILKXg40PPsVRRGT6P-321" value="Главная" style="text;html=1;strokeColor=none;fillColor=none;align=left;verticalAlign=middle;whiteSpace=wrap;rounded=0;strokeWidth=1;fontSize=16;" vertex="1" parent="1">
          <mxGeometry x="298.04999999999995" y="590" width="70" height="30" as="geometry" />
        </mxCell>
        <mxCell id="Wl-ILKXg40PPsVRRGT6P-322" value="Библиотека" style="text;html=1;strokeColor=none;fillColor=none;align=left;verticalAlign=middle;whiteSpace=wrap;rounded=0;strokeWidth=1;fontSize=16;" vertex="1" parent="1">
          <mxGeometry x="483.04999999999995" y="590" width="70" height="30" as="geometry" />
        </mxCell>
        <mxCell id="Wl-ILKXg40PPsVRRGT6P-323" value="" style="rounded=1;whiteSpace=wrap;html=1;" vertex="1" parent="1">
          <mxGeometry x="283" y="505" width="299" height="45" as="geometry" />
        </mxCell>
        <mxCell id="Wl-ILKXg40PPsVRRGT6P-324" value="" style="shape=actor;whiteSpace=wrap;html=1;strokeWidth=0;fontSize=14;fillColor=#CCCCCC;" vertex="1" parent="1">
          <mxGeometry x="292" y="510" width="28" height="35" as="geometry" />
        </mxCell>
        <mxCell id="Wl-ILKXg40PPsVRRGT6P-325" value="Исполнитель1" style="text;html=1;strokeColor=none;fillColor=none;align=left;verticalAlign=middle;whiteSpace=wrap;rounded=0;strokeWidth=1;fontSize=12;" vertex="1" parent="1">
          <mxGeometry x="323.04999999999995" y="530" width="90" height="20" as="geometry" />
        </mxCell>
        <mxCell id="Wl-ILKXg40PPsVRRGT6P-326" value="Название" style="text;html=1;strokeColor=none;fillColor=none;align=left;verticalAlign=middle;whiteSpace=wrap;rounded=0;strokeWidth=1;fontSize=12;" vertex="1" parent="1">
          <mxGeometry x="323.04999999999995" y="510" width="90" height="20" as="geometry" />
        </mxCell>
        <mxCell id="Wl-ILKXg40PPsVRRGT6P-327" value="" style="html=1;verticalLabelPosition=bottom;align=center;labelBackgroundColor=#ffffff;verticalAlign=top;strokeWidth=2;strokeColor=#000000;shadow=0;dashed=0;shape=mxgraph.ios7.icons.play;" vertex="1" parent="1">
          <mxGeometry x="545" y="516" width="21" height="24" as="geometry" />
        </mxCell>
        <mxCell id="Wl-ILKXg40PPsVRRGT6P-328" value="" style="ellipse;whiteSpace=wrap;html=1;aspect=fixed;strokeWidth=2;" vertex="1" parent="1">
          <mxGeometry x="422" y="570" width="20" height="20" as="geometry" />
        </mxCell>
        <mxCell id="Wl-ILKXg40PPsVRRGT6P-329" value="" style="endArrow=none;html=1;rounded=0;strokeWidth=2;" edge="1" parent="1" target="Wl-ILKXg40PPsVRRGT6P-328">
          <mxGeometry width="50" height="50" relative="1" as="geometry">
            <mxPoint x="442" y="600" as="sourcePoint" />
            <mxPoint x="492" y="580" as="targetPoint" />
          </mxGeometry>
        </mxCell>
        <mxCell id="Wl-ILKXg40PPsVRRGT6P-330" value="Поиск" style="text;html=1;strokeColor=none;fillColor=none;align=left;verticalAlign=middle;whiteSpace=wrap;rounded=0;strokeWidth=1;fontSize=16;" vertex="1" parent="1">
          <mxGeometry x="407.79999999999995" y="590" width="70" height="30" as="geometry" />
        </mxCell>
        <mxCell id="Wl-ILKXg40PPsVRRGT6P-331" value="&lt;font style=&quot;font-size: 20px;&quot;&gt;&lt;b&gt;Главное меню&lt;/b&gt;&lt;/font&gt;" style="text;html=1;strokeColor=none;fillColor=none;align=left;verticalAlign=middle;whiteSpace=wrap;rounded=0;fontSize=18;" vertex="1" parent="1">
          <mxGeometry x="-621.05" y="-10" width="680" height="40" as="geometry" />
        </mxCell>
        <mxCell id="Wl-ILKXg40PPsVRRGT6P-332" value="" style="rounded=1;whiteSpace=wrap;html=1;arcSize=10;" vertex="1" parent="1">
          <mxGeometry x="790" y="30" width="320" height="600" as="geometry" />
        </mxCell>
        <mxCell id="Wl-ILKXg40PPsVRRGT6P-333" value="" style="edgeStyle=orthogonalEdgeStyle;rounded=0;orthogonalLoop=1;jettySize=auto;html=1;exitX=0.5;exitY=0;exitDx=0;exitDy=0;entryX=0.219;entryY=-0.003;entryDx=0;entryDy=0;entryPerimeter=0;" edge="1" parent="1" source="Wl-ILKXg40PPsVRRGT6P-295" target="Wl-ILKXg40PPsVRRGT6P-332">
          <mxGeometry relative="1" as="geometry">
            <mxPoint x="790" y="20" as="targetPoint" />
            <mxPoint x="571" y="98.53" as="sourcePoint" />
            <Array as="points">
              <mxPoint x="535" y="-50" />
              <mxPoint x="860" y="-50" />
            </Array>
          </mxGeometry>
        </mxCell>
        <mxCell id="Wl-ILKXg40PPsVRRGT6P-334" value="&lt;font style=&quot;font-size: 16px;&quot;&gt;При нажатии переходит на новую вкладку&lt;/font&gt;" style="edgeLabel;html=1;align=center;verticalAlign=middle;resizable=0;points=[];" vertex="1" connectable="0" parent="Wl-ILKXg40PPsVRRGT6P-333">
          <mxGeometry x="-0.0084" y="1" relative="1" as="geometry">
            <mxPoint x="-1" y="-1" as="offset" />
          </mxGeometry>
        </mxCell>
        <mxCell id="Wl-ILKXg40PPsVRRGT6P-335" value="" style="sketch=0;pointerEvents=1;shadow=0;dashed=0;html=1;strokeColor=none;fillColor=#505050;labelPosition=center;verticalLabelPosition=bottom;verticalAlign=top;outlineConnect=0;align=center;shape=mxgraph.office.concepts.home;" vertex="1" parent="1">
          <mxGeometry x="836.1800000000001" y="571" width="28.74" height="28" as="geometry" />
        </mxCell>
        <mxCell id="Wl-ILKXg40PPsVRRGT6P-336" value="" style="rounded=0;whiteSpace=wrap;html=1;rotation=90;" vertex="1" parent="1">
          <mxGeometry x="1024.5" y="580" width="30" height="10" as="geometry" />
        </mxCell>
        <mxCell id="Wl-ILKXg40PPsVRRGT6P-337" value="" style="rounded=0;whiteSpace=wrap;html=1;rotation=90;" vertex="1" parent="1">
          <mxGeometry x="1034.5" y="580" width="30" height="10" as="geometry" />
        </mxCell>
        <mxCell id="Wl-ILKXg40PPsVRRGT6P-338" value="" style="rounded=0;whiteSpace=wrap;html=1;rotation=90;" vertex="1" parent="1">
          <mxGeometry x="1044.5" y="580" width="30" height="10" as="geometry" />
        </mxCell>
        <mxCell id="Wl-ILKXg40PPsVRRGT6P-339" value="Главная" style="text;html=1;strokeColor=none;fillColor=none;align=left;verticalAlign=middle;whiteSpace=wrap;rounded=0;strokeWidth=1;fontSize=16;" vertex="1" parent="1">
          <mxGeometry x="815.55" y="595" width="70" height="30" as="geometry" />
        </mxCell>
        <mxCell id="Wl-ILKXg40PPsVRRGT6P-340" value="Библиотека" style="text;html=1;strokeColor=none;fillColor=none;align=left;verticalAlign=middle;whiteSpace=wrap;rounded=0;strokeWidth=1;fontSize=16;" vertex="1" parent="1">
          <mxGeometry x="1000.55" y="595" width="70" height="30" as="geometry" />
        </mxCell>
        <mxCell id="Wl-ILKXg40PPsVRRGT6P-341" value="" style="rounded=1;whiteSpace=wrap;html=1;" vertex="1" parent="1">
          <mxGeometry x="800.5" y="510" width="299" height="45" as="geometry" />
        </mxCell>
        <mxCell id="Wl-ILKXg40PPsVRRGT6P-342" value="" style="shape=actor;whiteSpace=wrap;html=1;strokeWidth=0;fontSize=14;fillColor=#CCCCCC;" vertex="1" parent="1">
          <mxGeometry x="809.5" y="515" width="28" height="35" as="geometry" />
        </mxCell>
        <mxCell id="Wl-ILKXg40PPsVRRGT6P-343" value="Исполнитель1" style="text;html=1;strokeColor=none;fillColor=none;align=left;verticalAlign=middle;whiteSpace=wrap;rounded=0;strokeWidth=1;fontSize=12;" vertex="1" parent="1">
          <mxGeometry x="840.55" y="535" width="90" height="20" as="geometry" />
        </mxCell>
        <mxCell id="Wl-ILKXg40PPsVRRGT6P-344" value="Название" style="text;html=1;strokeColor=none;fillColor=none;align=left;verticalAlign=middle;whiteSpace=wrap;rounded=0;strokeWidth=1;fontSize=12;" vertex="1" parent="1">
          <mxGeometry x="840.55" y="515" width="90" height="20" as="geometry" />
        </mxCell>
        <mxCell id="Wl-ILKXg40PPsVRRGT6P-345" value="" style="html=1;verticalLabelPosition=bottom;align=center;labelBackgroundColor=#ffffff;verticalAlign=top;strokeWidth=2;strokeColor=#000000;shadow=0;dashed=0;shape=mxgraph.ios7.icons.play;" vertex="1" parent="1">
          <mxGeometry x="1062.5" y="521" width="21" height="24" as="geometry" />
        </mxCell>
        <mxCell id="Wl-ILKXg40PPsVRRGT6P-346" value="" style="ellipse;whiteSpace=wrap;html=1;aspect=fixed;strokeWidth=2;" vertex="1" parent="1">
          <mxGeometry x="939.5" y="575" width="20" height="20" as="geometry" />
        </mxCell>
        <mxCell id="Wl-ILKXg40PPsVRRGT6P-347" value="" style="endArrow=none;html=1;rounded=0;strokeWidth=2;" edge="1" parent="1" target="Wl-ILKXg40PPsVRRGT6P-346">
          <mxGeometry width="50" height="50" relative="1" as="geometry">
            <mxPoint x="959.5" y="605" as="sourcePoint" />
            <mxPoint x="1009.5" y="585" as="targetPoint" />
          </mxGeometry>
        </mxCell>
        <mxCell id="Wl-ILKXg40PPsVRRGT6P-348" value="Поиск" style="text;html=1;strokeColor=none;fillColor=none;align=left;verticalAlign=middle;whiteSpace=wrap;rounded=0;strokeWidth=1;fontSize=16;" vertex="1" parent="1">
          <mxGeometry x="925.3" y="595" width="70" height="30" as="geometry" />
        </mxCell>
        <mxCell id="Wl-ILKXg40PPsVRRGT6P-352" value="" style="endArrow=none;html=1;rounded=0;" edge="1" parent="1">
          <mxGeometry width="50" height="50" relative="1" as="geometry">
            <mxPoint x="280.0000000000001" y="85" as="sourcePoint" />
            <mxPoint x="320.0000000000001" y="105" as="targetPoint" />
          </mxGeometry>
        </mxCell>
        <mxCell id="Wl-ILKXg40PPsVRRGT6P-353" value="" style="endArrow=none;html=1;rounded=0;" edge="1" parent="1">
          <mxGeometry width="50" height="50" relative="1" as="geometry">
            <mxPoint x="280.0000000000001" y="85" as="sourcePoint" />
            <mxPoint x="320.0000000000001" y="65" as="targetPoint" />
          </mxGeometry>
        </mxCell>
        <mxCell id="Wl-ILKXg40PPsVRRGT6P-354" value="" style="endArrow=none;html=1;rounded=0;" edge="1" parent="1">
          <mxGeometry width="50" height="50" relative="1" as="geometry">
            <mxPoint x="809.5" y="70" as="sourcePoint" />
            <mxPoint x="849.5" y="90" as="targetPoint" />
          </mxGeometry>
        </mxCell>
        <mxCell id="Wl-ILKXg40PPsVRRGT6P-355" value="" style="endArrow=none;html=1;rounded=0;" edge="1" parent="1">
          <mxGeometry width="50" height="50" relative="1" as="geometry">
            <mxPoint x="809.5" y="70" as="sourcePoint" />
            <mxPoint x="849.5" y="50" as="targetPoint" />
          </mxGeometry>
        </mxCell>
        <mxCell id="Wl-ILKXg40PPsVRRGT6P-356" style="edgeStyle=orthogonalEdgeStyle;rounded=0;orthogonalLoop=1;jettySize=auto;html=1;strokeColor=#666666;fontSize=14;fontColor=#999999;entryX=0.863;entryY=1.002;entryDx=0;entryDy=0;entryPerimeter=0;exitX=0.232;exitY=0.997;exitDx=0;exitDy=0;exitPerimeter=0;" edge="1" parent="1" source="Wl-ILKXg40PPsVRRGT6P-277" target="Wl-ILKXg40PPsVRRGT6P-1">
          <mxGeometry relative="1" as="geometry">
            <Array as="points">
              <mxPoint x="-166" y="680" />
              <mxPoint x="-424" y="680" />
            </Array>
            <mxPoint x="-164.99999999999997" y="680" as="sourcePoint" />
            <mxPoint x="-425" y="680" as="targetPoint" />
          </mxGeometry>
        </mxCell>
        <mxCell id="Wl-ILKXg40PPsVRRGT6P-357" value="&lt;font style=&quot;font-size: 15px;&quot;&gt;Свайп справа налево возвращает&lt;/font&gt;" style="edgeLabel;html=1;align=center;verticalAlign=middle;resizable=0;points=[];" vertex="1" connectable="0" parent="Wl-ILKXg40PPsVRRGT6P-356">
          <mxGeometry x="-0.0213" y="-2" relative="1" as="geometry">
            <mxPoint as="offset" />
          </mxGeometry>
        </mxCell>
        <mxCell id="Wl-ILKXg40PPsVRRGT6P-358" value="&lt;font style=&quot;font-size: 20px;&quot;&gt;&lt;b&gt;Меню с пользователем&lt;/b&gt;&lt;/font&gt;" style="text;html=1;strokeColor=none;fillColor=none;align=left;verticalAlign=middle;whiteSpace=wrap;rounded=0;fontSize=18;" vertex="1" parent="1">
          <mxGeometry x="-199.75" y="-10" width="249" height="40" as="geometry" />
        </mxCell>
        <mxCell id="Wl-ILKXg40PPsVRRGT6P-360" style="edgeStyle=orthogonalEdgeStyle;rounded=0;orthogonalLoop=1;jettySize=auto;html=1;strokeColor=#666666;fontSize=14;fontColor=#999999;entryX=0.75;entryY=1;entryDx=0;entryDy=0;" edge="1" parent="1" target="Wl-ILKXg40PPsVRRGT6P-1">
          <mxGeometry relative="1" as="geometry">
            <Array as="points">
              <mxPoint x="190" y="772" />
              <mxPoint x="-460" y="772" />
            </Array>
            <mxPoint x="190" y="80" as="sourcePoint" />
            <mxPoint x="-468.95000000000005" y="733" as="targetPoint" />
          </mxGeometry>
        </mxCell>
        <mxCell id="Wl-ILKXg40PPsVRRGT6P-361" value="&lt;font style=&quot;font-size: 16px;&quot;&gt;Нажатие или свайп слева направо возвращает на главную&lt;/font&gt;" style="edgeLabel;html=1;align=center;verticalAlign=middle;resizable=0;points=[];" vertex="1" connectable="0" parent="Wl-ILKXg40PPsVRRGT6P-360">
          <mxGeometry x="-0.0213" y="-2" relative="1" as="geometry">
            <mxPoint as="offset" />
          </mxGeometry>
        </mxCell>
        <mxCell id="Wl-ILKXg40PPsVRRGT6P-362" value="" style="endArrow=none;html=1;rounded=0;" edge="1" parent="1">
          <mxGeometry width="50" height="50" relative="1" as="geometry">
            <mxPoint x="190" y="80.34" as="sourcePoint" />
            <mxPoint x="283" y="80" as="targetPoint" />
          </mxGeometry>
        </mxCell>
        <mxCell id="Wl-ILKXg40PPsVRRGT6P-363" style="edgeStyle=orthogonalEdgeStyle;rounded=0;orthogonalLoop=1;jettySize=auto;html=1;strokeColor=#666666;fontSize=14;fontColor=#999999;" edge="1" parent="1">
          <mxGeometry relative="1" as="geometry">
            <Array as="points">
              <mxPoint x="845.5600000000001" y="91.95000000000007" />
            </Array>
            <mxPoint x="844.9999999999999" y="91.02000000000001" as="sourcePoint" />
            <mxPoint x="590" y="91" as="targetPoint" />
          </mxGeometry>
        </mxCell>
        <mxCell id="Wl-ILKXg40PPsVRRGT6P-367" value="Тренды" style="text;html=1;strokeColor=none;fillColor=none;align=left;verticalAlign=middle;whiteSpace=wrap;rounded=0;strokeWidth=1;fontSize=16;" vertex="1" parent="1">
          <mxGeometry x="860" y="45" width="160" height="30" as="geometry" />
        </mxCell>
        <mxCell id="Wl-ILKXg40PPsVRRGT6P-368" value="Выбранный период" style="text;html=1;strokeColor=none;fillColor=none;align=left;verticalAlign=middle;whiteSpace=wrap;rounded=0;strokeWidth=1;fontSize=16;" vertex="1" parent="1">
          <mxGeometry x="809.5" y="100" width="160" height="30" as="geometry" />
        </mxCell>
        <mxCell id="Wl-ILKXg40PPsVRRGT6P-373" value="&lt;font style=&quot;font-size: 14px;&quot;&gt;1 месяц&lt;/font&gt;" style="rounded=1;whiteSpace=wrap;html=1;" vertex="1" parent="1">
          <mxGeometry x="809.5" y="130" width="80.5" height="30" as="geometry" />
        </mxCell>
        <mxCell id="Wl-ILKXg40PPsVRRGT6P-376" value="&lt;font style=&quot;font-size: 14px;&quot;&gt;3 месяца&lt;/font&gt;" style="rounded=1;whiteSpace=wrap;html=1;fillColor=#d5e8d4;strokeColor=#82b366;" vertex="1" parent="1">
          <mxGeometry x="909.25" y="130" width="80.5" height="30" as="geometry" />
        </mxCell>
        <mxCell id="Wl-ILKXg40PPsVRRGT6P-377" value="&lt;font style=&quot;font-size: 14px;&quot;&gt;Свой&lt;/font&gt;" style="rounded=1;whiteSpace=wrap;html=1;" vertex="1" parent="1">
          <mxGeometry x="1009.25" y="130" width="80.5" height="30" as="geometry" />
        </mxCell>
        <mxCell id="Wl-ILKXg40PPsVRRGT6P-378" value="" style="rounded=1;whiteSpace=wrap;html=1;" vertex="1" parent="1">
          <mxGeometry x="1254.83" y="-15" width="264" height="45" as="geometry" />
        </mxCell>
        <mxCell id="Wl-ILKXg40PPsVRRGT6P-382" value="&lt;font style=&quot;font-size: 12px;&quot;&gt;Название&lt;/font&gt;" style="text;html=1;strokeColor=none;fillColor=none;align=left;verticalAlign=middle;whiteSpace=wrap;rounded=0;strokeWidth=1;fontSize=16;" vertex="1" parent="1">
          <mxGeometry x="1288.08" y="-20" width="160" height="30" as="geometry" />
        </mxCell>
        <mxCell id="Wl-ILKXg40PPsVRRGT6P-383" value="1" style="text;html=1;strokeColor=none;fillColor=none;align=left;verticalAlign=middle;whiteSpace=wrap;rounded=0;strokeWidth=1;fontSize=16;" vertex="1" parent="1">
          <mxGeometry x="1265.83" y="-7.5" width="30" height="30" as="geometry" />
        </mxCell>
        <mxCell id="Wl-ILKXg40PPsVRRGT6P-384" value="&lt;font style=&quot;font-size: 12px;&quot;&gt;Исполнитель&lt;/font&gt;" style="text;html=1;strokeColor=none;fillColor=none;align=left;verticalAlign=middle;whiteSpace=wrap;rounded=0;strokeWidth=1;fontSize=16;" vertex="1" parent="1">
          <mxGeometry x="1288.08" y="10" width="160" height="10" as="geometry" />
        </mxCell>
        <mxCell id="Wl-ILKXg40PPsVRRGT6P-385" value="" style="triangle;whiteSpace=wrap;html=1;rotation=-90;fillColor=#d5e8d4;strokeColor=#82b366;" vertex="1" parent="1">
          <mxGeometry x="1463.33" y="-5" width="20" height="25" as="geometry" />
        </mxCell>
        <mxCell id="Wl-ILKXg40PPsVRRGT6P-386" value="&lt;font color=&quot;#99ff99&quot;&gt;1&lt;/font&gt;" style="text;html=1;strokeColor=none;fillColor=none;align=left;verticalAlign=middle;whiteSpace=wrap;rounded=0;strokeWidth=1;fontSize=16;" vertex="1" parent="1">
          <mxGeometry x="1488.83" y="-7.5" width="30" height="30" as="geometry" />
        </mxCell>
        <mxCell id="Wl-ILKXg40PPsVRRGT6P-388" value="" style="rounded=1;whiteSpace=wrap;html=1;" vertex="1" parent="1">
          <mxGeometry x="1254.3799999999999" y="40" width="264" height="45" as="geometry" />
        </mxCell>
        <mxCell id="Wl-ILKXg40PPsVRRGT6P-389" value="&lt;font style=&quot;font-size: 12px;&quot;&gt;Название&lt;/font&gt;" style="text;html=1;strokeColor=none;fillColor=none;align=left;verticalAlign=middle;whiteSpace=wrap;rounded=0;strokeWidth=1;fontSize=16;" vertex="1" parent="1">
          <mxGeometry x="1287.6299999999999" y="35" width="160" height="30" as="geometry" />
        </mxCell>
        <mxCell id="Wl-ILKXg40PPsVRRGT6P-390" value="2" style="text;html=1;strokeColor=none;fillColor=none;align=left;verticalAlign=middle;whiteSpace=wrap;rounded=0;strokeWidth=1;fontSize=16;" vertex="1" parent="1">
          <mxGeometry x="1265.3799999999999" y="47.5" width="30" height="30" as="geometry" />
        </mxCell>
        <mxCell id="Wl-ILKXg40PPsVRRGT6P-391" value="&lt;font style=&quot;font-size: 12px;&quot;&gt;Исполнитель&lt;/font&gt;" style="text;html=1;strokeColor=none;fillColor=none;align=left;verticalAlign=middle;whiteSpace=wrap;rounded=0;strokeWidth=1;fontSize=16;" vertex="1" parent="1">
          <mxGeometry x="1287.6299999999999" y="65" width="160" height="10" as="geometry" />
        </mxCell>
        <mxCell id="Wl-ILKXg40PPsVRRGT6P-392" value="" style="triangle;whiteSpace=wrap;html=1;rotation=90;fillColor=#f8cecc;strokeColor=#b85450;" vertex="1" parent="1">
          <mxGeometry x="1462.8799999999999" y="50" width="20" height="25" as="geometry" />
        </mxCell>
        <mxCell id="Wl-ILKXg40PPsVRRGT6P-393" value="&lt;font color=&quot;#ff3333&quot;&gt;1&lt;/font&gt;" style="text;html=1;strokeColor=none;fillColor=none;align=left;verticalAlign=middle;whiteSpace=wrap;rounded=0;strokeWidth=1;fontSize=16;" vertex="1" parent="1">
          <mxGeometry x="1488.3799999999999" y="47.5" width="30" height="30" as="geometry" />
        </mxCell>
        <mxCell id="Wl-ILKXg40PPsVRRGT6P-400" value="" style="rounded=1;whiteSpace=wrap;html=1;" vertex="1" parent="1">
          <mxGeometry x="1254.3799999999999" y="95" width="264" height="45" as="geometry" />
        </mxCell>
        <mxCell id="Wl-ILKXg40PPsVRRGT6P-401" value="&lt;font style=&quot;font-size: 12px;&quot;&gt;Название&lt;/font&gt;" style="text;html=1;strokeColor=none;fillColor=none;align=left;verticalAlign=middle;whiteSpace=wrap;rounded=0;strokeWidth=1;fontSize=16;" vertex="1" parent="1">
          <mxGeometry x="1287.6299999999999" y="90" width="160" height="30" as="geometry" />
        </mxCell>
        <mxCell id="Wl-ILKXg40PPsVRRGT6P-402" value="3" style="text;html=1;strokeColor=none;fillColor=none;align=left;verticalAlign=middle;whiteSpace=wrap;rounded=0;strokeWidth=1;fontSize=16;" vertex="1" parent="1">
          <mxGeometry x="1265.3799999999999" y="102.5" width="30" height="30" as="geometry" />
        </mxCell>
        <mxCell id="Wl-ILKXg40PPsVRRGT6P-403" value="&lt;font style=&quot;font-size: 12px;&quot;&gt;Исполнитель&lt;/font&gt;" style="text;html=1;strokeColor=none;fillColor=none;align=left;verticalAlign=middle;whiteSpace=wrap;rounded=0;strokeWidth=1;fontSize=16;" vertex="1" parent="1">
          <mxGeometry x="1287.6299999999999" y="120" width="160" height="10" as="geometry" />
        </mxCell>
        <mxCell id="Wl-ILKXg40PPsVRRGT6P-404" value="" style="triangle;whiteSpace=wrap;html=1;rotation=-90;fillColor=#d5e8d4;strokeColor=#82b366;" vertex="1" parent="1">
          <mxGeometry x="1462.8799999999999" y="105" width="20" height="25" as="geometry" />
        </mxCell>
        <mxCell id="Wl-ILKXg40PPsVRRGT6P-405" value="&lt;font color=&quot;#99ff99&quot;&gt;2&lt;/font&gt;" style="text;html=1;strokeColor=none;fillColor=none;align=left;verticalAlign=middle;whiteSpace=wrap;rounded=0;strokeWidth=1;fontSize=16;" vertex="1" parent="1">
          <mxGeometry x="1488.3799999999999" y="102.5" width="30" height="30" as="geometry" />
        </mxCell>
        <mxCell id="Wl-ILKXg40PPsVRRGT6P-406" value="" style="rounded=1;whiteSpace=wrap;html=1;" vertex="1" parent="1">
          <mxGeometry x="1254.83" y="155" width="264" height="45" as="geometry" />
        </mxCell>
        <mxCell id="Wl-ILKXg40PPsVRRGT6P-407" value="&lt;font style=&quot;font-size: 12px;&quot;&gt;Название&lt;/font&gt;" style="text;html=1;strokeColor=none;fillColor=none;align=left;verticalAlign=middle;whiteSpace=wrap;rounded=0;strokeWidth=1;fontSize=16;" vertex="1" parent="1">
          <mxGeometry x="1288.08" y="150" width="160" height="30" as="geometry" />
        </mxCell>
        <mxCell id="Wl-ILKXg40PPsVRRGT6P-408" value="4" style="text;html=1;strokeColor=none;fillColor=none;align=left;verticalAlign=middle;whiteSpace=wrap;rounded=0;strokeWidth=1;fontSize=16;" vertex="1" parent="1">
          <mxGeometry x="1265.83" y="162.5" width="30" height="30" as="geometry" />
        </mxCell>
        <mxCell id="Wl-ILKXg40PPsVRRGT6P-409" value="&lt;font style=&quot;font-size: 12px;&quot;&gt;Исполнитель&lt;/font&gt;" style="text;html=1;strokeColor=none;fillColor=none;align=left;verticalAlign=middle;whiteSpace=wrap;rounded=0;strokeWidth=1;fontSize=16;" vertex="1" parent="1">
          <mxGeometry x="1288.08" y="180" width="160" height="10" as="geometry" />
        </mxCell>
        <mxCell id="Wl-ILKXg40PPsVRRGT6P-410" value="" style="triangle;whiteSpace=wrap;html=1;rotation=-90;fillColor=#d5e8d4;strokeColor=#82b366;" vertex="1" parent="1">
          <mxGeometry x="1463.33" y="165" width="20" height="25" as="geometry" />
        </mxCell>
        <mxCell id="Wl-ILKXg40PPsVRRGT6P-411" value="&lt;font color=&quot;#99ff99&quot;&gt;1&lt;/font&gt;" style="text;html=1;strokeColor=none;fillColor=none;align=left;verticalAlign=middle;whiteSpace=wrap;rounded=0;strokeWidth=1;fontSize=16;" vertex="1" parent="1">
          <mxGeometry x="1488.83" y="162.5" width="30" height="30" as="geometry" />
        </mxCell>
        <mxCell id="Wl-ILKXg40PPsVRRGT6P-412" value="" style="endArrow=none;html=1;rounded=0;entryX=0.906;entryY=0.496;entryDx=0;entryDy=0;entryPerimeter=0;" edge="1" parent="1">
          <mxGeometry width="50" height="50" relative="1" as="geometry">
            <mxPoint x="818.95" y="290" as="sourcePoint" />
            <mxPoint x="1074.1199999999997" y="290.10000000000014" as="targetPoint" />
          </mxGeometry>
        </mxCell>
        <mxCell id="Wl-ILKXg40PPsVRRGT6P-413" value="" style="endArrow=none;html=1;rounded=0;" edge="1" parent="1">
          <mxGeometry width="50" height="50" relative="1" as="geometry">
            <mxPoint x="817.4999999999998" y="290" as="sourcePoint" />
            <mxPoint x="817.4999999999998" y="180" as="targetPoint" />
          </mxGeometry>
        </mxCell>
        <mxCell id="Wl-ILKXg40PPsVRRGT6P-414" value="&lt;span style=&quot;color: rgb(0, 0, 0); font-family: Helvetica; font-style: normal; font-variant-ligatures: normal; font-variant-caps: normal; font-weight: 400; letter-spacing: normal; orphans: 2; text-align: left; text-indent: 0px; text-transform: none; widows: 2; word-spacing: 0px; -webkit-text-stroke-width: 0px; white-space: normal; background-color: rgb(251, 251, 251); text-decoration-thickness: initial; text-decoration-style: initial; text-decoration-color: initial; float: none; display: inline !important;&quot;&gt;&lt;font style=&quot;font-size: 12px;&quot;&gt;октябрь&lt;/font&gt;&lt;/span&gt;" style="text;whiteSpace=wrap;html=1;" vertex="1" parent="1">
          <mxGeometry x="1009.2500000000001" y="285" width="180" height="40" as="geometry" />
        </mxCell>
        <mxCell id="Wl-ILKXg40PPsVRRGT6P-415" value="&lt;span style=&quot;color: rgb(0, 0, 0); font-family: Helvetica; font-style: normal; font-variant-ligatures: normal; font-variant-caps: normal; font-weight: 400; letter-spacing: normal; orphans: 2; text-align: left; text-indent: 0px; text-transform: none; widows: 2; word-spacing: 0px; -webkit-text-stroke-width: 0px; white-space: normal; background-color: rgb(251, 251, 251); text-decoration-thickness: initial; text-decoration-style: initial; text-decoration-color: initial; float: none; display: inline !important;&quot;&gt;&lt;font style=&quot;font-size: 12px;&quot;&gt;сентябрь&lt;/font&gt;&lt;/span&gt;" style="text;whiteSpace=wrap;html=1;" vertex="1" parent="1">
          <mxGeometry x="919.4999999999998" y="287.5" width="180" height="40" as="geometry" />
        </mxCell>
        <mxCell id="Wl-ILKXg40PPsVRRGT6P-416" value="&lt;span style=&quot;color: rgb(0, 0, 0); font-family: Helvetica; font-style: normal; font-variant-ligatures: normal; font-variant-caps: normal; font-weight: 400; letter-spacing: normal; orphans: 2; text-align: left; text-indent: 0px; text-transform: none; widows: 2; word-spacing: 0px; -webkit-text-stroke-width: 0px; white-space: normal; background-color: rgb(251, 251, 251); text-decoration-thickness: initial; text-decoration-style: initial; text-decoration-color: initial; float: none; display: inline !important;&quot;&gt;&lt;font style=&quot;font-size: 12px;&quot;&gt;август&lt;/font&gt;&lt;/span&gt;" style="text;whiteSpace=wrap;html=1;" vertex="1" parent="1">
          <mxGeometry x="844.2" y="287.5" width="180" height="40" as="geometry" />
        </mxCell>
        <mxCell id="Wl-ILKXg40PPsVRRGT6P-418" value="" style="endArrow=none;html=1;rounded=0;entryX=0.906;entryY=0.496;entryDx=0;entryDy=0;entryPerimeter=0;fillColor=#d5e8d4;strokeColor=#82b366;" edge="1" parent="1">
          <mxGeometry width="50" height="50" relative="1" as="geometry">
            <mxPoint x="816.5799999999999" y="187.25" as="sourcePoint" />
            <mxPoint x="1071.8299999999997" y="187.75" as="targetPoint" />
          </mxGeometry>
        </mxCell>
        <mxCell id="Wl-ILKXg40PPsVRRGT6P-419" value="" style="endArrow=none;html=1;rounded=0;entryX=0.906;entryY=0.496;entryDx=0;entryDy=0;entryPerimeter=0;fillColor=#d5e8d4;strokeColor=#82b366;" edge="1" parent="1">
          <mxGeometry width="50" height="50" relative="1" as="geometry">
            <mxPoint x="816.5799999999999" y="207.25" as="sourcePoint" />
            <mxPoint x="1071.8299999999997" y="207.75" as="targetPoint" />
          </mxGeometry>
        </mxCell>
        <mxCell id="Wl-ILKXg40PPsVRRGT6P-420" value="" style="endArrow=none;html=1;rounded=0;entryX=0.906;entryY=0.496;entryDx=0;entryDy=0;entryPerimeter=0;fillColor=#d5e8d4;strokeColor=#82b366;" edge="1" parent="1">
          <mxGeometry width="50" height="50" relative="1" as="geometry">
            <mxPoint x="816.0699999999999" y="227.25" as="sourcePoint" />
            <mxPoint x="1071.32" y="227.75" as="targetPoint" />
          </mxGeometry>
        </mxCell>
        <mxCell id="Wl-ILKXg40PPsVRRGT6P-421" value="" style="endArrow=none;html=1;rounded=0;entryX=0.906;entryY=0.496;entryDx=0;entryDy=0;entryPerimeter=0;fillColor=#d5e8d4;strokeColor=#82b366;" edge="1" parent="1">
          <mxGeometry width="50" height="50" relative="1" as="geometry">
            <mxPoint x="816.0799999999999" y="247.25" as="sourcePoint" />
            <mxPoint x="1071.3299999999997" y="247.75" as="targetPoint" />
          </mxGeometry>
        </mxCell>
        <mxCell id="Wl-ILKXg40PPsVRRGT6P-424" value="" style="endArrow=none;html=1;rounded=0;entryX=0.906;entryY=0.496;entryDx=0;entryDy=0;entryPerimeter=0;fillColor=#d5e8d4;strokeColor=#82b366;" edge="1" parent="1">
          <mxGeometry width="50" height="50" relative="1" as="geometry">
            <mxPoint x="816.5699999999999" y="269.75" as="sourcePoint" />
            <mxPoint x="1071.82" y="270.25" as="targetPoint" />
          </mxGeometry>
        </mxCell>
        <mxCell id="Wl-ILKXg40PPsVRRGT6P-426" value="" style="endArrow=none;html=1;rounded=0;fillColor=#d5e8d4;strokeColor=#82b366;" edge="1" parent="1" source="Wl-ILKXg40PPsVRRGT6P-430">
          <mxGeometry width="50" height="50" relative="1" as="geometry">
            <mxPoint x="1028.95" y="282.5" as="sourcePoint" />
            <mxPoint x="1028.7" y="182.5" as="targetPoint" />
          </mxGeometry>
        </mxCell>
        <mxCell id="Wl-ILKXg40PPsVRRGT6P-428" value="" style="endArrow=none;html=1;rounded=0;fillColor=#d5e8d4;strokeColor=#82b366;" edge="1" parent="1">
          <mxGeometry width="50" height="50" relative="1" as="geometry">
            <mxPoint x="944.28" y="282.5" as="sourcePoint" />
            <mxPoint x="944.03" y="182.5" as="targetPoint" />
          </mxGeometry>
        </mxCell>
        <mxCell id="Wl-ILKXg40PPsVRRGT6P-436" value="" style="endArrow=none;html=1;rounded=0;fillColor=#d5e8d4;strokeColor=#82b366;" edge="1" parent="1" source="Wl-ILKXg40PPsVRRGT6P-437" target="Wl-ILKXg40PPsVRRGT6P-430">
          <mxGeometry width="50" height="50" relative="1" as="geometry">
            <mxPoint x="1028.95" y="282.5" as="sourcePoint" />
            <mxPoint x="1028.7" y="182.5" as="targetPoint" />
          </mxGeometry>
        </mxCell>
        <mxCell id="Wl-ILKXg40PPsVRRGT6P-430" value="" style="ellipse;whiteSpace=wrap;html=1;aspect=fixed;fillColor=#e1d5e7;strokeColor=#9673a6;" vertex="1" parent="1">
          <mxGeometry x="1024.2" y="182.5" width="10" height="10" as="geometry" />
        </mxCell>
        <mxCell id="Wl-ILKXg40PPsVRRGT6P-438" value="" style="endArrow=none;html=1;rounded=0;fillColor=#d5e8d4;strokeColor=#82b366;" edge="1" parent="1" source="Wl-ILKXg40PPsVRRGT6P-439" target="Wl-ILKXg40PPsVRRGT6P-437">
          <mxGeometry width="50" height="50" relative="1" as="geometry">
            <mxPoint x="1028.95" y="282.5" as="sourcePoint" />
            <mxPoint x="1029.2" y="192.5" as="targetPoint" />
          </mxGeometry>
        </mxCell>
        <mxCell id="Wl-ILKXg40PPsVRRGT6P-437" value="" style="ellipse;whiteSpace=wrap;html=1;aspect=fixed;fillColor=#fff2cc;strokeColor=#d6b656;" vertex="1" parent="1">
          <mxGeometry x="1024.2" y="202.5" width="10" height="10" as="geometry" />
        </mxCell>
        <mxCell id="Wl-ILKXg40PPsVRRGT6P-440" value="" style="endArrow=none;html=1;rounded=0;fillColor=#d5e8d4;strokeColor=#82b366;" edge="1" parent="1" source="Wl-ILKXg40PPsVRRGT6P-441" target="Wl-ILKXg40PPsVRRGT6P-439">
          <mxGeometry width="50" height="50" relative="1" as="geometry">
            <mxPoint x="1028.95" y="282.5" as="sourcePoint" />
            <mxPoint x="1029.2" y="212.5" as="targetPoint" />
          </mxGeometry>
        </mxCell>
        <mxCell id="Wl-ILKXg40PPsVRRGT6P-439" value="" style="ellipse;whiteSpace=wrap;html=1;aspect=fixed;fillColor=#f8cecc;strokeColor=#b85450;" vertex="1" parent="1">
          <mxGeometry x="1024.2" y="222.5" width="10" height="10" as="geometry" />
        </mxCell>
        <mxCell id="Wl-ILKXg40PPsVRRGT6P-442" value="" style="endArrow=none;html=1;rounded=0;fillColor=#d5e8d4;strokeColor=#82b366;" edge="1" parent="1" source="Wl-ILKXg40PPsVRRGT6P-443" target="Wl-ILKXg40PPsVRRGT6P-441">
          <mxGeometry width="50" height="50" relative="1" as="geometry">
            <mxPoint x="1028.95" y="282.5" as="sourcePoint" />
            <mxPoint x="1029.2" y="232.5" as="targetPoint" />
          </mxGeometry>
        </mxCell>
        <mxCell id="Wl-ILKXg40PPsVRRGT6P-441" value="" style="ellipse;whiteSpace=wrap;html=1;aspect=fixed;fillColor=#60a917;strokeColor=#2D7600;fontColor=#ffffff;" vertex="1" parent="1">
          <mxGeometry x="1024.2" y="242.5" width="10" height="10" as="geometry" />
        </mxCell>
        <mxCell id="Wl-ILKXg40PPsVRRGT6P-444" value="" style="endArrow=none;html=1;rounded=0;fillColor=#d5e8d4;strokeColor=#82b366;" edge="1" parent="1" target="Wl-ILKXg40PPsVRRGT6P-443">
          <mxGeometry width="50" height="50" relative="1" as="geometry">
            <mxPoint x="1028.95" y="282.5" as="sourcePoint" />
            <mxPoint x="1029.07" y="252" as="targetPoint" />
          </mxGeometry>
        </mxCell>
        <mxCell id="Wl-ILKXg40PPsVRRGT6P-443" value="" style="ellipse;whiteSpace=wrap;html=1;aspect=fixed;fillColor=#0050ef;strokeColor=#001DBC;fontColor=#ffffff;" vertex="1" parent="1">
          <mxGeometry x="1024.2" y="265" width="10" height="10" as="geometry" />
        </mxCell>
        <mxCell id="Wl-ILKXg40PPsVRRGT6P-445" value="" style="endArrow=none;html=1;rounded=0;fillColor=#d5e8d4;strokeColor=#82b366;" edge="1" parent="1" source="Wl-ILKXg40PPsVRRGT6P-447">
          <mxGeometry width="50" height="50" relative="1" as="geometry">
            <mxPoint x="943.27" y="282.5" as="sourcePoint" />
            <mxPoint x="943.02" y="182.5" as="targetPoint" />
          </mxGeometry>
        </mxCell>
        <mxCell id="Wl-ILKXg40PPsVRRGT6P-446" value="" style="endArrow=none;html=1;rounded=0;fillColor=#d5e8d4;strokeColor=#82b366;" edge="1" parent="1" source="Wl-ILKXg40PPsVRRGT6P-449" target="Wl-ILKXg40PPsVRRGT6P-447">
          <mxGeometry width="50" height="50" relative="1" as="geometry">
            <mxPoint x="943.27" y="282.5" as="sourcePoint" />
            <mxPoint x="943.02" y="182.5" as="targetPoint" />
          </mxGeometry>
        </mxCell>
        <mxCell id="Wl-ILKXg40PPsVRRGT6P-447" value="" style="ellipse;whiteSpace=wrap;html=1;aspect=fixed;fillColor=#fff2cc;strokeColor=#d6b656;" vertex="1" parent="1">
          <mxGeometry x="938.52" y="182.5" width="10" height="10" as="geometry" />
        </mxCell>
        <mxCell id="Wl-ILKXg40PPsVRRGT6P-448" value="" style="endArrow=none;html=1;rounded=0;fillColor=#d5e8d4;strokeColor=#82b366;" edge="1" parent="1" source="Wl-ILKXg40PPsVRRGT6P-451" target="Wl-ILKXg40PPsVRRGT6P-449">
          <mxGeometry width="50" height="50" relative="1" as="geometry">
            <mxPoint x="943.27" y="282.5" as="sourcePoint" />
            <mxPoint x="943.52" y="192.5" as="targetPoint" />
          </mxGeometry>
        </mxCell>
        <mxCell id="Wl-ILKXg40PPsVRRGT6P-449" value="" style="ellipse;whiteSpace=wrap;html=1;aspect=fixed;fillColor=#e1d5e7;strokeColor=#9673a6;" vertex="1" parent="1">
          <mxGeometry x="938.52" y="202.5" width="10" height="10" as="geometry" />
        </mxCell>
        <mxCell id="Wl-ILKXg40PPsVRRGT6P-450" value="" style="endArrow=none;html=1;rounded=0;fillColor=#d5e8d4;strokeColor=#82b366;" edge="1" parent="1" source="Wl-ILKXg40PPsVRRGT6P-453" target="Wl-ILKXg40PPsVRRGT6P-451">
          <mxGeometry width="50" height="50" relative="1" as="geometry">
            <mxPoint x="943.27" y="282.5" as="sourcePoint" />
            <mxPoint x="943.52" y="212.5" as="targetPoint" />
          </mxGeometry>
        </mxCell>
        <mxCell id="Wl-ILKXg40PPsVRRGT6P-451" value="" style="ellipse;whiteSpace=wrap;html=1;aspect=fixed;fillColor=#f8cecc;strokeColor=#b85450;" vertex="1" parent="1">
          <mxGeometry x="938.52" y="222.5" width="10" height="10" as="geometry" />
        </mxCell>
        <mxCell id="Wl-ILKXg40PPsVRRGT6P-452" value="" style="endArrow=none;html=1;rounded=0;fillColor=#d5e8d4;strokeColor=#82b366;" edge="1" parent="1" source="Wl-ILKXg40PPsVRRGT6P-454" target="Wl-ILKXg40PPsVRRGT6P-453">
          <mxGeometry width="50" height="50" relative="1" as="geometry">
            <mxPoint x="943.27" y="282.5" as="sourcePoint" />
            <mxPoint x="943.52" y="232.5" as="targetPoint" />
          </mxGeometry>
        </mxCell>
        <mxCell id="Wl-ILKXg40PPsVRRGT6P-453" value="" style="ellipse;whiteSpace=wrap;html=1;aspect=fixed;fillColor=#60a917;strokeColor=#2D7600;fontColor=#ffffff;" vertex="1" parent="1">
          <mxGeometry x="938.52" y="242.5" width="10" height="10" as="geometry" />
        </mxCell>
        <mxCell id="Wl-ILKXg40PPsVRRGT6P-454" value="" style="ellipse;whiteSpace=wrap;html=1;aspect=fixed;fillColor=#dae8fc;strokeColor=#6c8ebf;" vertex="1" parent="1">
          <mxGeometry x="938.52" y="265" width="10" height="10" as="geometry" />
        </mxCell>
        <mxCell id="Wl-ILKXg40PPsVRRGT6P-455" value="" style="endArrow=none;html=1;rounded=0;fillColor=#d5e8d4;strokeColor=#82b366;" edge="1" parent="1" source="Wl-ILKXg40PPsVRRGT6P-457">
          <mxGeometry width="50" height="50" relative="1" as="geometry">
            <mxPoint x="870.8199999999999" y="282.5" as="sourcePoint" />
            <mxPoint x="870.5699999999999" y="182.5" as="targetPoint" />
          </mxGeometry>
        </mxCell>
        <mxCell id="Wl-ILKXg40PPsVRRGT6P-456" value="" style="endArrow=none;html=1;rounded=0;fillColor=#d5e8d4;strokeColor=#82b366;" edge="1" parent="1" source="Wl-ILKXg40PPsVRRGT6P-459" target="Wl-ILKXg40PPsVRRGT6P-457">
          <mxGeometry width="50" height="50" relative="1" as="geometry">
            <mxPoint x="870.8199999999999" y="282.5" as="sourcePoint" />
            <mxPoint x="870.5699999999999" y="182.5" as="targetPoint" />
          </mxGeometry>
        </mxCell>
        <mxCell id="Wl-ILKXg40PPsVRRGT6P-457" value="" style="ellipse;whiteSpace=wrap;html=1;aspect=fixed;fillColor=#fff2cc;strokeColor=#d6b656;" vertex="1" parent="1">
          <mxGeometry x="866.0699999999999" y="182.5" width="10" height="10" as="geometry" />
        </mxCell>
        <mxCell id="Wl-ILKXg40PPsVRRGT6P-458" value="" style="endArrow=none;html=1;rounded=0;fillColor=#d5e8d4;strokeColor=#82b366;" edge="1" parent="1" source="Wl-ILKXg40PPsVRRGT6P-461" target="Wl-ILKXg40PPsVRRGT6P-459">
          <mxGeometry width="50" height="50" relative="1" as="geometry">
            <mxPoint x="870.8199999999999" y="282.5" as="sourcePoint" />
            <mxPoint x="871.0699999999999" y="192.5" as="targetPoint" />
          </mxGeometry>
        </mxCell>
        <mxCell id="Wl-ILKXg40PPsVRRGT6P-459" value="" style="ellipse;whiteSpace=wrap;html=1;aspect=fixed;fillColor=#e1d5e7;strokeColor=#9673a6;" vertex="1" parent="1">
          <mxGeometry x="866.0699999999999" y="202.5" width="10" height="10" as="geometry" />
        </mxCell>
        <mxCell id="Wl-ILKXg40PPsVRRGT6P-460" value="" style="endArrow=none;html=1;rounded=0;fillColor=#d5e8d4;strokeColor=#82b366;" edge="1" parent="1" source="Wl-ILKXg40PPsVRRGT6P-463" target="Wl-ILKXg40PPsVRRGT6P-461">
          <mxGeometry width="50" height="50" relative="1" as="geometry">
            <mxPoint x="870.8199999999999" y="282.5" as="sourcePoint" />
            <mxPoint x="871.0699999999999" y="212.5" as="targetPoint" />
          </mxGeometry>
        </mxCell>
        <mxCell id="Wl-ILKXg40PPsVRRGT6P-461" value="" style="ellipse;whiteSpace=wrap;html=1;aspect=fixed;fillColor=#f8cecc;strokeColor=#b85450;" vertex="1" parent="1">
          <mxGeometry x="866.0699999999999" y="222.5" width="10" height="10" as="geometry" />
        </mxCell>
        <mxCell id="Wl-ILKXg40PPsVRRGT6P-462" value="" style="endArrow=none;html=1;rounded=0;fillColor=#d5e8d4;strokeColor=#82b366;" edge="1" parent="1" source="Wl-ILKXg40PPsVRRGT6P-464" target="Wl-ILKXg40PPsVRRGT6P-463">
          <mxGeometry width="50" height="50" relative="1" as="geometry">
            <mxPoint x="870.8199999999999" y="282.5" as="sourcePoint" />
            <mxPoint x="871.0699999999999" y="232.5" as="targetPoint" />
          </mxGeometry>
        </mxCell>
        <mxCell id="Wl-ILKXg40PPsVRRGT6P-463" value="" style="ellipse;whiteSpace=wrap;html=1;aspect=fixed;fillColor=#DAE8FC;strokeColor=#6c8ebf;" vertex="1" parent="1">
          <mxGeometry x="866.0699999999999" y="242.5" width="10" height="10" as="geometry" />
        </mxCell>
        <mxCell id="Wl-ILKXg40PPsVRRGT6P-464" value="" style="ellipse;whiteSpace=wrap;html=1;aspect=fixed;fillColor=#60a917;strokeColor=#2D7600;fontColor=#ffffff;" vertex="1" parent="1">
          <mxGeometry x="866.0699999999999" y="265" width="10" height="10" as="geometry" />
        </mxCell>
        <mxCell id="Wl-ILKXg40PPsVRRGT6P-465" value="" style="endArrow=none;html=1;rounded=0;strokeColor=#FFF2CC;entryX=0;entryY=0.5;entryDx=0;entryDy=0;" edge="1" parent="1" target="Wl-ILKXg40PPsVRRGT6P-447">
          <mxGeometry width="50" height="50" relative="1" as="geometry">
            <mxPoint x="876.0699999999999" y="187.44" as="sourcePoint" />
            <mxPoint x="936.0699999999999" y="187.44" as="targetPoint" />
          </mxGeometry>
        </mxCell>
        <mxCell id="Wl-ILKXg40PPsVRRGT6P-467" value="" style="endArrow=none;html=1;rounded=0;strokeColor=#FFF2CC;entryX=-0.089;entryY=0.477;entryDx=0;entryDy=0;entryPerimeter=0;" edge="1" parent="1" target="Wl-ILKXg40PPsVRRGT6P-437">
          <mxGeometry width="50" height="50" relative="1" as="geometry">
            <mxPoint x="948.52" y="187.22" as="sourcePoint" />
            <mxPoint x="1010.52" y="187.78" as="targetPoint" />
          </mxGeometry>
        </mxCell>
        <mxCell id="Wl-ILKXg40PPsVRRGT6P-469" value="" style="endArrow=none;html=1;rounded=0;strokeColor=#E1D5E7;" edge="1" parent="1">
          <mxGeometry width="50" height="50" relative="1" as="geometry">
            <mxPoint x="876.0699999999999" y="207.43" as="sourcePoint" />
            <mxPoint x="946.0699999999999" y="207.43" as="targetPoint" />
          </mxGeometry>
        </mxCell>
        <mxCell id="Wl-ILKXg40PPsVRRGT6P-470" value="" style="endArrow=none;html=1;rounded=0;strokeColor=#E1D5E7;entryX=0;entryY=0.5;entryDx=0;entryDy=0;" edge="1" parent="1" target="Wl-ILKXg40PPsVRRGT6P-430">
          <mxGeometry width="50" height="50" relative="1" as="geometry">
            <mxPoint x="948.52" y="207.43" as="sourcePoint" />
            <mxPoint x="1018.52" y="207.43" as="targetPoint" />
          </mxGeometry>
        </mxCell>
        <mxCell id="Wl-ILKXg40PPsVRRGT6P-471" value="" style="endArrow=none;html=1;rounded=0;strokeColor=#F8CECC;entryX=0;entryY=0.5;entryDx=0;entryDy=0;" edge="1" parent="1" target="Wl-ILKXg40PPsVRRGT6P-451">
          <mxGeometry width="50" height="50" relative="1" as="geometry">
            <mxPoint x="876.0699999999999" y="227.41" as="sourcePoint" />
            <mxPoint x="956.0699999999999" y="227.41" as="targetPoint" />
          </mxGeometry>
        </mxCell>
        <mxCell id="Wl-ILKXg40PPsVRRGT6P-472" value="" style="endArrow=none;html=1;rounded=0;strokeColor=#F8CECC;entryX=0;entryY=0.5;entryDx=0;entryDy=0;" edge="1" parent="1" target="Wl-ILKXg40PPsVRRGT6P-439">
          <mxGeometry width="50" height="50" relative="1" as="geometry">
            <mxPoint x="948.52" y="227.21" as="sourcePoint" />
            <mxPoint x="1010.52" y="227.8" as="targetPoint" />
          </mxGeometry>
        </mxCell>
        <mxCell id="Wl-ILKXg40PPsVRRGT6P-473" value="" style="endArrow=none;html=1;rounded=0;strokeColor=#DAE8FC;entryX=0;entryY=0.5;entryDx=0;entryDy=0;" edge="1" parent="1" target="Wl-ILKXg40PPsVRRGT6P-454">
          <mxGeometry width="50" height="50" relative="1" as="geometry">
            <mxPoint x="876.0699999999999" y="247.42" as="sourcePoint" />
            <mxPoint x="956.0699999999999" y="247.42" as="targetPoint" />
          </mxGeometry>
        </mxCell>
        <mxCell id="Wl-ILKXg40PPsVRRGT6P-474" value="" style="endArrow=none;html=1;rounded=0;strokeColor=#DAE8FC;" edge="1" parent="1">
          <mxGeometry width="50" height="50" relative="1" as="geometry">
            <mxPoint x="948.52" y="269.99999999999994" as="sourcePoint" />
            <mxPoint x="1006.0699999999999" y="280" as="targetPoint" />
          </mxGeometry>
        </mxCell>
        <mxCell id="Wl-ILKXg40PPsVRRGT6P-475" value="" style="endArrow=none;html=1;rounded=0;strokeColor=#60A917;entryX=0;entryY=0.5;entryDx=0;entryDy=0;" edge="1" parent="1" target="Wl-ILKXg40PPsVRRGT6P-453">
          <mxGeometry width="50" height="50" relative="1" as="geometry">
            <mxPoint x="877.52" y="270" as="sourcePoint" />
            <mxPoint x="927.52" y="220" as="targetPoint" />
          </mxGeometry>
        </mxCell>
        <mxCell id="Wl-ILKXg40PPsVRRGT6P-476" value="" style="endArrow=none;html=1;rounded=0;strokeColor=#60A917;entryX=0;entryY=0.5;entryDx=0;entryDy=0;exitX=1;exitY=0.5;exitDx=0;exitDy=0;" edge="1" parent="1" source="Wl-ILKXg40PPsVRRGT6P-453" target="Wl-ILKXg40PPsVRRGT6P-441">
          <mxGeometry width="50" height="50" relative="1" as="geometry">
            <mxPoint x="948.52" y="245.5" as="sourcePoint" />
            <mxPoint x="1009.0699999999999" y="222.5" as="targetPoint" />
          </mxGeometry>
        </mxCell>
        <mxCell id="Wl-ILKXg40PPsVRRGT6P-477" value="" style="endArrow=none;html=1;rounded=0;strokeColor=#0050EF;" edge="1" parent="1">
          <mxGeometry width="50" height="50" relative="1" as="geometry">
            <mxPoint x="996.0699999999999" y="280" as="sourcePoint" />
            <mxPoint x="1024.2" y="270" as="targetPoint" />
          </mxGeometry>
        </mxCell>
        <mxCell id="Wl-ILKXg40PPsVRRGT6P-478" value="1" style="text;html=1;strokeColor=none;fillColor=none;align=left;verticalAlign=middle;whiteSpace=wrap;rounded=0;strokeWidth=1;fontSize=16;" vertex="1" parent="1">
          <mxGeometry x="806.0699999999999" y="172.5" width="10" height="30" as="geometry" />
        </mxCell>
        <mxCell id="Wl-ILKXg40PPsVRRGT6P-479" value="2" style="text;html=1;strokeColor=none;fillColor=none;align=left;verticalAlign=middle;whiteSpace=wrap;rounded=0;strokeWidth=1;fontSize=16;" vertex="1" parent="1">
          <mxGeometry x="806.0699999999999" y="192.5" width="10" height="30" as="geometry" />
        </mxCell>
        <mxCell id="Wl-ILKXg40PPsVRRGT6P-480" value="3" style="text;html=1;strokeColor=none;fillColor=none;align=left;verticalAlign=middle;whiteSpace=wrap;rounded=0;strokeWidth=1;fontSize=16;" vertex="1" parent="1">
          <mxGeometry x="806.0699999999999" y="212.5" width="10" height="30" as="geometry" />
        </mxCell>
        <mxCell id="Wl-ILKXg40PPsVRRGT6P-481" value="4" style="text;html=1;strokeColor=none;fillColor=none;align=left;verticalAlign=middle;whiteSpace=wrap;rounded=0;strokeWidth=1;fontSize=16;" vertex="1" parent="1">
          <mxGeometry x="806.0699999999999" y="232.5" width="10" height="30" as="geometry" />
        </mxCell>
        <mxCell id="Wl-ILKXg40PPsVRRGT6P-482" value="5" style="text;html=1;strokeColor=none;fillColor=none;align=left;verticalAlign=middle;whiteSpace=wrap;rounded=0;strokeWidth=1;fontSize=16;" vertex="1" parent="1">
          <mxGeometry x="806.0699999999999" y="252.5" width="10" height="30" as="geometry" />
        </mxCell>
        <mxCell id="Wl-ILKXg40PPsVRRGT6P-484" value="" style="edgeStyle=orthogonalEdgeStyle;rounded=0;orthogonalLoop=1;jettySize=auto;html=1;exitX=0.5;exitY=0;exitDx=0;exitDy=0;" edge="1" parent="1">
          <mxGeometry relative="1" as="geometry">
            <mxPoint x="1360" y="-70" as="targetPoint" />
            <mxPoint x="875.4200000000001" y="130.03" as="sourcePoint" />
            <Array as="points">
              <mxPoint x="875" y="-150" />
              <mxPoint x="1360" y="-150" />
            </Array>
          </mxGeometry>
        </mxCell>
        <mxCell id="Wl-ILKXg40PPsVRRGT6P-485" value="&lt;font style=&quot;font-size: 16px;&quot;&gt;При нажатии показывает более простую версию&lt;/font&gt;" style="edgeLabel;html=1;align=center;verticalAlign=middle;resizable=0;points=[];" vertex="1" connectable="0" parent="Wl-ILKXg40PPsVRRGT6P-484">
          <mxGeometry x="-0.0084" y="1" relative="1" as="geometry">
            <mxPoint x="-1" y="-1" as="offset" />
          </mxGeometry>
        </mxCell>
        <mxCell id="Wl-ILKXg40PPsVRRGT6P-486" value="" style="rounded=1;whiteSpace=wrap;html=1;" vertex="1" parent="1">
          <mxGeometry x="1254.3799999999999" y="215" width="264" height="45" as="geometry" />
        </mxCell>
        <mxCell id="Wl-ILKXg40PPsVRRGT6P-487" value="&lt;font style=&quot;font-size: 12px;&quot;&gt;Название&lt;/font&gt;" style="text;html=1;strokeColor=none;fillColor=none;align=left;verticalAlign=middle;whiteSpace=wrap;rounded=0;strokeWidth=1;fontSize=16;" vertex="1" parent="1">
          <mxGeometry x="1287.6299999999999" y="210" width="160" height="30" as="geometry" />
        </mxCell>
        <mxCell id="Wl-ILKXg40PPsVRRGT6P-488" value="5" style="text;html=1;strokeColor=none;fillColor=none;align=left;verticalAlign=middle;whiteSpace=wrap;rounded=0;strokeWidth=1;fontSize=16;" vertex="1" parent="1">
          <mxGeometry x="1265.3799999999999" y="222.5" width="30" height="30" as="geometry" />
        </mxCell>
        <mxCell id="Wl-ILKXg40PPsVRRGT6P-489" value="&lt;font style=&quot;font-size: 12px;&quot;&gt;Исполнитель&lt;/font&gt;" style="text;html=1;strokeColor=none;fillColor=none;align=left;verticalAlign=middle;whiteSpace=wrap;rounded=0;strokeWidth=1;fontSize=16;" vertex="1" parent="1">
          <mxGeometry x="1287.6299999999999" y="240" width="160" height="10" as="geometry" />
        </mxCell>
        <mxCell id="Wl-ILKXg40PPsVRRGT6P-490" value="" style="triangle;whiteSpace=wrap;html=1;rotation=-90;fillColor=#d5e8d4;strokeColor=#82b366;" vertex="1" parent="1">
          <mxGeometry x="1462.8799999999999" y="225" width="20" height="25" as="geometry" />
        </mxCell>
        <mxCell id="Wl-ILKXg40PPsVRRGT6P-491" value="&lt;font color=&quot;#99ff99&quot;&gt;1&lt;/font&gt;" style="text;html=1;strokeColor=none;fillColor=none;align=left;verticalAlign=middle;whiteSpace=wrap;rounded=0;strokeWidth=1;fontSize=16;" vertex="1" parent="1">
          <mxGeometry x="1488.3799999999999" y="222.5" width="30" height="30" as="geometry" />
        </mxCell>
        <mxCell id="Wl-ILKXg40PPsVRRGT6P-492" value="" style="edgeStyle=orthogonalEdgeStyle;rounded=0;orthogonalLoop=1;jettySize=auto;html=1;exitX=0.5;exitY=0;exitDx=0;exitDy=0;" edge="1" parent="1" source="Wl-ILKXg40PPsVRRGT6P-377">
          <mxGeometry relative="1" as="geometry">
            <mxPoint x="1550" y="440" as="targetPoint" />
            <mxPoint x="1130" y="110" as="sourcePoint" />
            <Array as="points">
              <mxPoint x="1050" y="110" />
              <mxPoint x="1150" y="110" />
              <mxPoint x="1150" y="310" />
              <mxPoint x="1550" y="310" />
              <mxPoint x="1550" y="440" />
            </Array>
          </mxGeometry>
        </mxCell>
        <mxCell id="Wl-ILKXg40PPsVRRGT6P-493" value="&lt;font style=&quot;font-size: 16px;&quot;&gt;При нажатии показывает колесо выбора периода&lt;/font&gt;" style="edgeLabel;html=1;align=center;verticalAlign=middle;resizable=0;points=[];" vertex="1" connectable="0" parent="Wl-ILKXg40PPsVRRGT6P-492">
          <mxGeometry x="-0.0084" y="1" relative="1" as="geometry">
            <mxPoint x="63" as="offset" />
          </mxGeometry>
        </mxCell>
        <mxCell id="Wl-ILKXg40PPsVRRGT6P-494" value="" style="rounded=1;whiteSpace=wrap;html=1;arcSize=10;" vertex="1" parent="1">
          <mxGeometry x="1203.25" y="380" width="320" height="600" as="geometry" />
        </mxCell>
        <mxCell id="Wl-ILKXg40PPsVRRGT6P-495" value="" style="sketch=0;pointerEvents=1;shadow=0;dashed=0;html=1;strokeColor=none;fillColor=#505050;labelPosition=center;verticalLabelPosition=bottom;verticalAlign=top;outlineConnect=0;align=center;shape=mxgraph.office.concepts.home;" vertex="1" parent="1">
          <mxGeometry x="1249.43" y="921" width="28.74" height="28" as="geometry" />
        </mxCell>
        <mxCell id="Wl-ILKXg40PPsVRRGT6P-496" value="" style="rounded=0;whiteSpace=wrap;html=1;rotation=90;" vertex="1" parent="1">
          <mxGeometry x="1437.75" y="930" width="30" height="10" as="geometry" />
        </mxCell>
        <mxCell id="Wl-ILKXg40PPsVRRGT6P-497" value="" style="rounded=0;whiteSpace=wrap;html=1;rotation=90;" vertex="1" parent="1">
          <mxGeometry x="1447.75" y="930" width="30" height="10" as="geometry" />
        </mxCell>
        <mxCell id="Wl-ILKXg40PPsVRRGT6P-498" value="" style="rounded=0;whiteSpace=wrap;html=1;rotation=90;" vertex="1" parent="1">
          <mxGeometry x="1457.75" y="930" width="30" height="10" as="geometry" />
        </mxCell>
        <mxCell id="Wl-ILKXg40PPsVRRGT6P-499" value="Главная" style="text;html=1;strokeColor=none;fillColor=none;align=left;verticalAlign=middle;whiteSpace=wrap;rounded=0;strokeWidth=1;fontSize=16;" vertex="1" parent="1">
          <mxGeometry x="1228.8" y="945" width="70" height="30" as="geometry" />
        </mxCell>
        <mxCell id="Wl-ILKXg40PPsVRRGT6P-500" value="Библиотека" style="text;html=1;strokeColor=none;fillColor=none;align=left;verticalAlign=middle;whiteSpace=wrap;rounded=0;strokeWidth=1;fontSize=16;" vertex="1" parent="1">
          <mxGeometry x="1413.8" y="945" width="70" height="30" as="geometry" />
        </mxCell>
        <mxCell id="Wl-ILKXg40PPsVRRGT6P-501" value="" style="rounded=1;whiteSpace=wrap;html=1;" vertex="1" parent="1">
          <mxGeometry x="1213.75" y="860" width="299" height="45" as="geometry" />
        </mxCell>
        <mxCell id="Wl-ILKXg40PPsVRRGT6P-502" value="" style="shape=actor;whiteSpace=wrap;html=1;strokeWidth=0;fontSize=14;fillColor=#CCCCCC;" vertex="1" parent="1">
          <mxGeometry x="1222.75" y="865" width="28" height="35" as="geometry" />
        </mxCell>
        <mxCell id="Wl-ILKXg40PPsVRRGT6P-503" value="Исполнитель1" style="text;html=1;strokeColor=none;fillColor=none;align=left;verticalAlign=middle;whiteSpace=wrap;rounded=0;strokeWidth=1;fontSize=12;" vertex="1" parent="1">
          <mxGeometry x="1253.8" y="885" width="90" height="20" as="geometry" />
        </mxCell>
        <mxCell id="Wl-ILKXg40PPsVRRGT6P-504" value="Название" style="text;html=1;strokeColor=none;fillColor=none;align=left;verticalAlign=middle;whiteSpace=wrap;rounded=0;strokeWidth=1;fontSize=12;" vertex="1" parent="1">
          <mxGeometry x="1253.8" y="865" width="90" height="20" as="geometry" />
        </mxCell>
        <mxCell id="Wl-ILKXg40PPsVRRGT6P-505" value="" style="html=1;verticalLabelPosition=bottom;align=center;labelBackgroundColor=#ffffff;verticalAlign=top;strokeWidth=2;strokeColor=#000000;shadow=0;dashed=0;shape=mxgraph.ios7.icons.play;" vertex="1" parent="1">
          <mxGeometry x="1475.75" y="871" width="21" height="24" as="geometry" />
        </mxCell>
        <mxCell id="Wl-ILKXg40PPsVRRGT6P-506" value="" style="ellipse;whiteSpace=wrap;html=1;aspect=fixed;strokeWidth=2;" vertex="1" parent="1">
          <mxGeometry x="1352.75" y="925" width="20" height="20" as="geometry" />
        </mxCell>
        <mxCell id="Wl-ILKXg40PPsVRRGT6P-507" value="" style="endArrow=none;html=1;rounded=0;strokeWidth=2;" edge="1" parent="1" target="Wl-ILKXg40PPsVRRGT6P-506">
          <mxGeometry width="50" height="50" relative="1" as="geometry">
            <mxPoint x="1372.75" y="955" as="sourcePoint" />
            <mxPoint x="1422.75" y="935" as="targetPoint" />
          </mxGeometry>
        </mxCell>
        <mxCell id="Wl-ILKXg40PPsVRRGT6P-508" value="Поиск" style="text;html=1;strokeColor=none;fillColor=none;align=left;verticalAlign=middle;whiteSpace=wrap;rounded=0;strokeWidth=1;fontSize=16;" vertex="1" parent="1">
          <mxGeometry x="1338.55" y="945" width="70" height="30" as="geometry" />
        </mxCell>
        <mxCell id="Wl-ILKXg40PPsVRRGT6P-509" value="" style="endArrow=none;html=1;rounded=0;" edge="1" parent="1">
          <mxGeometry width="50" height="50" relative="1" as="geometry">
            <mxPoint x="1222.75" y="420" as="sourcePoint" />
            <mxPoint x="1262.75" y="440" as="targetPoint" />
          </mxGeometry>
        </mxCell>
        <mxCell id="Wl-ILKXg40PPsVRRGT6P-510" value="" style="endArrow=none;html=1;rounded=0;" edge="1" parent="1">
          <mxGeometry width="50" height="50" relative="1" as="geometry">
            <mxPoint x="1222.75" y="420" as="sourcePoint" />
            <mxPoint x="1262.75" y="400" as="targetPoint" />
          </mxGeometry>
        </mxCell>
        <mxCell id="Wl-ILKXg40PPsVRRGT6P-511" value="Звуковая капсула" style="text;html=1;strokeColor=none;fillColor=none;align=left;verticalAlign=middle;whiteSpace=wrap;rounded=0;strokeWidth=1;fontSize=16;" vertex="1" parent="1">
          <mxGeometry x="1273.25" y="395" width="160" height="30" as="geometry" />
        </mxCell>
        <mxCell id="Wl-ILKXg40PPsVRRGT6P-512" value="Выбранный период" style="text;html=1;strokeColor=none;fillColor=none;align=left;verticalAlign=middle;whiteSpace=wrap;rounded=0;strokeWidth=1;fontSize=16;" vertex="1" parent="1">
          <mxGeometry x="1222.75" y="450" width="160" height="30" as="geometry" />
        </mxCell>
        <mxCell id="Wl-ILKXg40PPsVRRGT6P-513" value="&lt;font style=&quot;font-size: 14px;&quot;&gt;1 месяц&lt;/font&gt;" style="rounded=1;whiteSpace=wrap;html=1;" vertex="1" parent="1">
          <mxGeometry x="1222.75" y="480" width="80.5" height="30" as="geometry" />
        </mxCell>
        <mxCell id="Wl-ILKXg40PPsVRRGT6P-514" value="&lt;font style=&quot;font-size: 14px;&quot;&gt;3 месяца&lt;/font&gt;" style="rounded=1;whiteSpace=wrap;html=1;" vertex="1" parent="1">
          <mxGeometry x="1322.5" y="480" width="80.5" height="30" as="geometry" />
        </mxCell>
        <mxCell id="Wl-ILKXg40PPsVRRGT6P-515" value="&lt;font style=&quot;font-size: 14px;&quot;&gt;Свой&lt;/font&gt;" style="rounded=1;whiteSpace=wrap;html=1;fillColor=#d5e8d4;strokeColor=#82b366;" vertex="1" parent="1">
          <mxGeometry x="1422.5" y="480" width="80.5" height="30" as="geometry" />
        </mxCell>
        <mxCell id="Wl-ILKXg40PPsVRRGT6P-516" value="" style="endArrow=none;html=1;rounded=0;entryX=0.906;entryY=0.496;entryDx=0;entryDy=0;entryPerimeter=0;" edge="1" parent="1">
          <mxGeometry width="50" height="50" relative="1" as="geometry">
            <mxPoint x="1232.2" y="640" as="sourcePoint" />
            <mxPoint x="1487.3699999999997" y="640.1000000000001" as="targetPoint" />
          </mxGeometry>
        </mxCell>
        <mxCell id="Wl-ILKXg40PPsVRRGT6P-517" value="" style="endArrow=none;html=1;rounded=0;" edge="1" parent="1">
          <mxGeometry width="50" height="50" relative="1" as="geometry">
            <mxPoint x="1230.7499999999998" y="640" as="sourcePoint" />
            <mxPoint x="1230.7499999999998" y="530" as="targetPoint" />
          </mxGeometry>
        </mxCell>
        <mxCell id="Wl-ILKXg40PPsVRRGT6P-518" value="&lt;span style=&quot;color: rgb(0, 0, 0); font-family: Helvetica; font-style: normal; font-variant-ligatures: normal; font-variant-caps: normal; font-weight: 400; letter-spacing: normal; orphans: 2; text-align: left; text-indent: 0px; text-transform: none; widows: 2; word-spacing: 0px; -webkit-text-stroke-width: 0px; white-space: normal; background-color: rgb(251, 251, 251); text-decoration-thickness: initial; text-decoration-style: initial; text-decoration-color: initial; float: none; display: inline !important;&quot;&gt;&lt;font style=&quot;font-size: 12px;&quot;&gt;сентябрь&lt;/font&gt;&lt;/span&gt;" style="text;whiteSpace=wrap;html=1;" vertex="1" parent="1">
          <mxGeometry x="1332.7499999999998" y="637.5" width="180" height="40" as="geometry" />
        </mxCell>
        <mxCell id="Wl-ILKXg40PPsVRRGT6P-519" value="&lt;span style=&quot;color: rgb(0, 0, 0); font-family: Helvetica; font-style: normal; font-variant-ligatures: normal; font-variant-caps: normal; font-weight: 400; letter-spacing: normal; orphans: 2; text-align: left; text-indent: 0px; text-transform: none; widows: 2; word-spacing: 0px; -webkit-text-stroke-width: 0px; white-space: normal; background-color: rgb(251, 251, 251); text-decoration-thickness: initial; text-decoration-style: initial; text-decoration-color: initial; float: none; display: inline !important;&quot;&gt;&lt;font style=&quot;font-size: 12px;&quot;&gt;август&lt;/font&gt;&lt;/span&gt;" style="text;whiteSpace=wrap;html=1;" vertex="1" parent="1">
          <mxGeometry x="1257.45" y="637.5" width="180" height="40" as="geometry" />
        </mxCell>
        <mxCell id="Wl-ILKXg40PPsVRRGT6P-520" value="" style="endArrow=none;html=1;rounded=0;entryX=0.906;entryY=0.496;entryDx=0;entryDy=0;entryPerimeter=0;fillColor=#d5e8d4;strokeColor=#82b366;" edge="1" parent="1">
          <mxGeometry width="50" height="50" relative="1" as="geometry">
            <mxPoint x="1229.83" y="537.25" as="sourcePoint" />
            <mxPoint x="1485.0799999999997" y="537.75" as="targetPoint" />
          </mxGeometry>
        </mxCell>
        <mxCell id="Wl-ILKXg40PPsVRRGT6P-521" value="" style="endArrow=none;html=1;rounded=0;entryX=0.906;entryY=0.496;entryDx=0;entryDy=0;entryPerimeter=0;fillColor=#d5e8d4;strokeColor=#82b366;" edge="1" parent="1">
          <mxGeometry width="50" height="50" relative="1" as="geometry">
            <mxPoint x="1229.83" y="557.25" as="sourcePoint" />
            <mxPoint x="1485.0799999999997" y="557.75" as="targetPoint" />
          </mxGeometry>
        </mxCell>
        <mxCell id="Wl-ILKXg40PPsVRRGT6P-522" value="" style="endArrow=none;html=1;rounded=0;entryX=0.906;entryY=0.496;entryDx=0;entryDy=0;entryPerimeter=0;fillColor=#d5e8d4;strokeColor=#82b366;" edge="1" parent="1">
          <mxGeometry width="50" height="50" relative="1" as="geometry">
            <mxPoint x="1229.32" y="577.25" as="sourcePoint" />
            <mxPoint x="1484.57" y="577.75" as="targetPoint" />
          </mxGeometry>
        </mxCell>
        <mxCell id="Wl-ILKXg40PPsVRRGT6P-523" value="" style="endArrow=none;html=1;rounded=0;entryX=0.906;entryY=0.496;entryDx=0;entryDy=0;entryPerimeter=0;fillColor=#d5e8d4;strokeColor=#82b366;" edge="1" parent="1">
          <mxGeometry width="50" height="50" relative="1" as="geometry">
            <mxPoint x="1229.33" y="597.25" as="sourcePoint" />
            <mxPoint x="1484.5799999999997" y="597.75" as="targetPoint" />
          </mxGeometry>
        </mxCell>
        <mxCell id="Wl-ILKXg40PPsVRRGT6P-524" value="" style="endArrow=none;html=1;rounded=0;entryX=0.906;entryY=0.496;entryDx=0;entryDy=0;entryPerimeter=0;fillColor=#d5e8d4;strokeColor=#82b366;" edge="1" parent="1">
          <mxGeometry width="50" height="50" relative="1" as="geometry">
            <mxPoint x="1229.82" y="619.75" as="sourcePoint" />
            <mxPoint x="1485.07" y="620.25" as="targetPoint" />
          </mxGeometry>
        </mxCell>
        <mxCell id="Wl-ILKXg40PPsVRRGT6P-525" value="" style="endArrow=none;html=1;rounded=0;fillColor=#d5e8d4;strokeColor=#82b366;" edge="1" parent="1" source="Wl-ILKXg40PPsVRRGT6P-528">
          <mxGeometry width="50" height="50" relative="1" as="geometry">
            <mxPoint x="1442.2" y="632.5" as="sourcePoint" />
            <mxPoint x="1441.95" y="532.5" as="targetPoint" />
          </mxGeometry>
        </mxCell>
        <mxCell id="Wl-ILKXg40PPsVRRGT6P-526" value="" style="endArrow=none;html=1;rounded=0;fillColor=#d5e8d4;strokeColor=#82b366;" edge="1" parent="1">
          <mxGeometry width="50" height="50" relative="1" as="geometry">
            <mxPoint x="1357.53" y="632.5" as="sourcePoint" />
            <mxPoint x="1357.28" y="532.5" as="targetPoint" />
          </mxGeometry>
        </mxCell>
        <mxCell id="Wl-ILKXg40PPsVRRGT6P-527" value="" style="endArrow=none;html=1;rounded=0;fillColor=#d5e8d4;strokeColor=#82b366;" edge="1" parent="1" source="Wl-ILKXg40PPsVRRGT6P-530" target="Wl-ILKXg40PPsVRRGT6P-528">
          <mxGeometry width="50" height="50" relative="1" as="geometry">
            <mxPoint x="1442.2" y="632.5" as="sourcePoint" />
            <mxPoint x="1441.95" y="532.5" as="targetPoint" />
          </mxGeometry>
        </mxCell>
        <mxCell id="Wl-ILKXg40PPsVRRGT6P-528" value="" style="ellipse;whiteSpace=wrap;html=1;aspect=fixed;fillColor=#e1d5e7;strokeColor=#9673a6;" vertex="1" parent="1">
          <mxGeometry x="1437.45" y="532.5" width="10" height="10" as="geometry" />
        </mxCell>
        <mxCell id="Wl-ILKXg40PPsVRRGT6P-529" value="" style="endArrow=none;html=1;rounded=0;fillColor=#d5e8d4;strokeColor=#82b366;" edge="1" parent="1" source="Wl-ILKXg40PPsVRRGT6P-532" target="Wl-ILKXg40PPsVRRGT6P-530">
          <mxGeometry width="50" height="50" relative="1" as="geometry">
            <mxPoint x="1442.2" y="632.5" as="sourcePoint" />
            <mxPoint x="1442.45" y="542.5" as="targetPoint" />
          </mxGeometry>
        </mxCell>
        <mxCell id="Wl-ILKXg40PPsVRRGT6P-530" value="" style="ellipse;whiteSpace=wrap;html=1;aspect=fixed;fillColor=#fff2cc;strokeColor=#d6b656;" vertex="1" parent="1">
          <mxGeometry x="1437.45" y="552.5" width="10" height="10" as="geometry" />
        </mxCell>
        <mxCell id="Wl-ILKXg40PPsVRRGT6P-531" value="" style="endArrow=none;html=1;rounded=0;fillColor=#d5e8d4;strokeColor=#82b366;" edge="1" parent="1" source="Wl-ILKXg40PPsVRRGT6P-534" target="Wl-ILKXg40PPsVRRGT6P-532">
          <mxGeometry width="50" height="50" relative="1" as="geometry">
            <mxPoint x="1442.2" y="632.5" as="sourcePoint" />
            <mxPoint x="1442.45" y="562.5" as="targetPoint" />
          </mxGeometry>
        </mxCell>
        <mxCell id="Wl-ILKXg40PPsVRRGT6P-532" value="" style="ellipse;whiteSpace=wrap;html=1;aspect=fixed;fillColor=#f8cecc;strokeColor=#b85450;" vertex="1" parent="1">
          <mxGeometry x="1437.45" y="572.5" width="10" height="10" as="geometry" />
        </mxCell>
        <mxCell id="Wl-ILKXg40PPsVRRGT6P-533" value="" style="endArrow=none;html=1;rounded=0;fillColor=#d5e8d4;strokeColor=#82b366;" edge="1" parent="1" source="Wl-ILKXg40PPsVRRGT6P-536" target="Wl-ILKXg40PPsVRRGT6P-534">
          <mxGeometry width="50" height="50" relative="1" as="geometry">
            <mxPoint x="1442.2" y="632.5" as="sourcePoint" />
            <mxPoint x="1442.45" y="582.5" as="targetPoint" />
          </mxGeometry>
        </mxCell>
        <mxCell id="Wl-ILKXg40PPsVRRGT6P-534" value="" style="ellipse;whiteSpace=wrap;html=1;aspect=fixed;fillColor=#60a917;strokeColor=#2D7600;fontColor=#ffffff;" vertex="1" parent="1">
          <mxGeometry x="1437.45" y="592.5" width="10" height="10" as="geometry" />
        </mxCell>
        <mxCell id="Wl-ILKXg40PPsVRRGT6P-535" value="" style="endArrow=none;html=1;rounded=0;fillColor=#d5e8d4;strokeColor=#82b366;" edge="1" parent="1" target="Wl-ILKXg40PPsVRRGT6P-536">
          <mxGeometry width="50" height="50" relative="1" as="geometry">
            <mxPoint x="1442.2" y="632.5" as="sourcePoint" />
            <mxPoint x="1442.32" y="602" as="targetPoint" />
          </mxGeometry>
        </mxCell>
        <mxCell id="Wl-ILKXg40PPsVRRGT6P-536" value="" style="ellipse;whiteSpace=wrap;html=1;aspect=fixed;fillColor=#0050ef;strokeColor=#001DBC;fontColor=#ffffff;" vertex="1" parent="1">
          <mxGeometry x="1437.45" y="615" width="10" height="10" as="geometry" />
        </mxCell>
        <mxCell id="Wl-ILKXg40PPsVRRGT6P-537" value="" style="endArrow=none;html=1;rounded=0;fillColor=#d5e8d4;strokeColor=#82b366;" edge="1" parent="1" source="Wl-ILKXg40PPsVRRGT6P-539">
          <mxGeometry width="50" height="50" relative="1" as="geometry">
            <mxPoint x="1356.52" y="632.5" as="sourcePoint" />
            <mxPoint x="1356.27" y="532.5" as="targetPoint" />
          </mxGeometry>
        </mxCell>
        <mxCell id="Wl-ILKXg40PPsVRRGT6P-538" value="" style="endArrow=none;html=1;rounded=0;fillColor=#d5e8d4;strokeColor=#82b366;" edge="1" parent="1" source="Wl-ILKXg40PPsVRRGT6P-541" target="Wl-ILKXg40PPsVRRGT6P-539">
          <mxGeometry width="50" height="50" relative="1" as="geometry">
            <mxPoint x="1356.52" y="632.5" as="sourcePoint" />
            <mxPoint x="1356.27" y="532.5" as="targetPoint" />
          </mxGeometry>
        </mxCell>
        <mxCell id="Wl-ILKXg40PPsVRRGT6P-539" value="" style="ellipse;whiteSpace=wrap;html=1;aspect=fixed;fillColor=#fff2cc;strokeColor=#d6b656;" vertex="1" parent="1">
          <mxGeometry x="1351.77" y="532.5" width="10" height="10" as="geometry" />
        </mxCell>
        <mxCell id="Wl-ILKXg40PPsVRRGT6P-540" value="" style="endArrow=none;html=1;rounded=0;fillColor=#d5e8d4;strokeColor=#82b366;" edge="1" parent="1" source="Wl-ILKXg40PPsVRRGT6P-543" target="Wl-ILKXg40PPsVRRGT6P-541">
          <mxGeometry width="50" height="50" relative="1" as="geometry">
            <mxPoint x="1356.52" y="632.5" as="sourcePoint" />
            <mxPoint x="1356.77" y="542.5" as="targetPoint" />
          </mxGeometry>
        </mxCell>
        <mxCell id="Wl-ILKXg40PPsVRRGT6P-541" value="" style="ellipse;whiteSpace=wrap;html=1;aspect=fixed;fillColor=#e1d5e7;strokeColor=#9673a6;" vertex="1" parent="1">
          <mxGeometry x="1351.77" y="552.5" width="10" height="10" as="geometry" />
        </mxCell>
        <mxCell id="Wl-ILKXg40PPsVRRGT6P-542" value="" style="endArrow=none;html=1;rounded=0;fillColor=#d5e8d4;strokeColor=#82b366;" edge="1" parent="1" source="Wl-ILKXg40PPsVRRGT6P-545" target="Wl-ILKXg40PPsVRRGT6P-543">
          <mxGeometry width="50" height="50" relative="1" as="geometry">
            <mxPoint x="1356.52" y="632.5" as="sourcePoint" />
            <mxPoint x="1356.77" y="562.5" as="targetPoint" />
          </mxGeometry>
        </mxCell>
        <mxCell id="Wl-ILKXg40PPsVRRGT6P-543" value="" style="ellipse;whiteSpace=wrap;html=1;aspect=fixed;fillColor=#f8cecc;strokeColor=#b85450;" vertex="1" parent="1">
          <mxGeometry x="1351.77" y="572.5" width="10" height="10" as="geometry" />
        </mxCell>
        <mxCell id="Wl-ILKXg40PPsVRRGT6P-544" value="" style="endArrow=none;html=1;rounded=0;fillColor=#d5e8d4;strokeColor=#82b366;" edge="1" parent="1" source="Wl-ILKXg40PPsVRRGT6P-546" target="Wl-ILKXg40PPsVRRGT6P-545">
          <mxGeometry width="50" height="50" relative="1" as="geometry">
            <mxPoint x="1356.52" y="632.5" as="sourcePoint" />
            <mxPoint x="1356.77" y="582.5" as="targetPoint" />
          </mxGeometry>
        </mxCell>
        <mxCell id="Wl-ILKXg40PPsVRRGT6P-545" value="" style="ellipse;whiteSpace=wrap;html=1;aspect=fixed;fillColor=#60a917;strokeColor=#2D7600;fontColor=#ffffff;" vertex="1" parent="1">
          <mxGeometry x="1351.77" y="592.5" width="10" height="10" as="geometry" />
        </mxCell>
        <mxCell id="Wl-ILKXg40PPsVRRGT6P-546" value="" style="ellipse;whiteSpace=wrap;html=1;aspect=fixed;fillColor=#dae8fc;strokeColor=#6c8ebf;" vertex="1" parent="1">
          <mxGeometry x="1351.77" y="615" width="10" height="10" as="geometry" />
        </mxCell>
        <mxCell id="Wl-ILKXg40PPsVRRGT6P-547" value="" style="endArrow=none;html=1;rounded=0;fillColor=#d5e8d4;strokeColor=#82b366;" edge="1" parent="1" source="Wl-ILKXg40PPsVRRGT6P-549">
          <mxGeometry width="50" height="50" relative="1" as="geometry">
            <mxPoint x="1284.07" y="632.5" as="sourcePoint" />
            <mxPoint x="1283.82" y="532.5" as="targetPoint" />
          </mxGeometry>
        </mxCell>
        <mxCell id="Wl-ILKXg40PPsVRRGT6P-548" value="" style="endArrow=none;html=1;rounded=0;fillColor=#d5e8d4;strokeColor=#82b366;" edge="1" parent="1" source="Wl-ILKXg40PPsVRRGT6P-551" target="Wl-ILKXg40PPsVRRGT6P-549">
          <mxGeometry width="50" height="50" relative="1" as="geometry">
            <mxPoint x="1284.07" y="632.5" as="sourcePoint" />
            <mxPoint x="1283.82" y="532.5" as="targetPoint" />
          </mxGeometry>
        </mxCell>
        <mxCell id="Wl-ILKXg40PPsVRRGT6P-549" value="" style="ellipse;whiteSpace=wrap;html=1;aspect=fixed;fillColor=#fff2cc;strokeColor=#d6b656;" vertex="1" parent="1">
          <mxGeometry x="1279.32" y="532.5" width="10" height="10" as="geometry" />
        </mxCell>
        <mxCell id="Wl-ILKXg40PPsVRRGT6P-550" value="" style="endArrow=none;html=1;rounded=0;fillColor=#d5e8d4;strokeColor=#82b366;" edge="1" parent="1" source="Wl-ILKXg40PPsVRRGT6P-553" target="Wl-ILKXg40PPsVRRGT6P-551">
          <mxGeometry width="50" height="50" relative="1" as="geometry">
            <mxPoint x="1284.07" y="632.5" as="sourcePoint" />
            <mxPoint x="1284.32" y="542.5" as="targetPoint" />
          </mxGeometry>
        </mxCell>
        <mxCell id="Wl-ILKXg40PPsVRRGT6P-551" value="" style="ellipse;whiteSpace=wrap;html=1;aspect=fixed;fillColor=#e1d5e7;strokeColor=#9673a6;" vertex="1" parent="1">
          <mxGeometry x="1279.32" y="552.5" width="10" height="10" as="geometry" />
        </mxCell>
        <mxCell id="Wl-ILKXg40PPsVRRGT6P-552" value="" style="endArrow=none;html=1;rounded=0;fillColor=#d5e8d4;strokeColor=#82b366;" edge="1" parent="1" source="Wl-ILKXg40PPsVRRGT6P-555" target="Wl-ILKXg40PPsVRRGT6P-553">
          <mxGeometry width="50" height="50" relative="1" as="geometry">
            <mxPoint x="1284.07" y="632.5" as="sourcePoint" />
            <mxPoint x="1284.32" y="562.5" as="targetPoint" />
          </mxGeometry>
        </mxCell>
        <mxCell id="Wl-ILKXg40PPsVRRGT6P-553" value="" style="ellipse;whiteSpace=wrap;html=1;aspect=fixed;fillColor=#f8cecc;strokeColor=#b85450;" vertex="1" parent="1">
          <mxGeometry x="1279.32" y="572.5" width="10" height="10" as="geometry" />
        </mxCell>
        <mxCell id="Wl-ILKXg40PPsVRRGT6P-554" value="" style="endArrow=none;html=1;rounded=0;fillColor=#d5e8d4;strokeColor=#82b366;" edge="1" parent="1" source="Wl-ILKXg40PPsVRRGT6P-556" target="Wl-ILKXg40PPsVRRGT6P-555">
          <mxGeometry width="50" height="50" relative="1" as="geometry">
            <mxPoint x="1284.07" y="632.5" as="sourcePoint" />
            <mxPoint x="1284.32" y="582.5" as="targetPoint" />
          </mxGeometry>
        </mxCell>
        <mxCell id="Wl-ILKXg40PPsVRRGT6P-555" value="" style="ellipse;whiteSpace=wrap;html=1;aspect=fixed;fillColor=#DAE8FC;strokeColor=#6c8ebf;" vertex="1" parent="1">
          <mxGeometry x="1279.32" y="592.5" width="10" height="10" as="geometry" />
        </mxCell>
        <mxCell id="Wl-ILKXg40PPsVRRGT6P-556" value="" style="ellipse;whiteSpace=wrap;html=1;aspect=fixed;fillColor=#60a917;strokeColor=#2D7600;fontColor=#ffffff;" vertex="1" parent="1">
          <mxGeometry x="1279.32" y="615" width="10" height="10" as="geometry" />
        </mxCell>
        <mxCell id="Wl-ILKXg40PPsVRRGT6P-557" value="" style="endArrow=none;html=1;rounded=0;strokeColor=#FFF2CC;entryX=0;entryY=0.5;entryDx=0;entryDy=0;" edge="1" parent="1" target="Wl-ILKXg40PPsVRRGT6P-539">
          <mxGeometry width="50" height="50" relative="1" as="geometry">
            <mxPoint x="1289.32" y="537.44" as="sourcePoint" />
            <mxPoint x="1349.32" y="537.44" as="targetPoint" />
          </mxGeometry>
        </mxCell>
        <mxCell id="Wl-ILKXg40PPsVRRGT6P-558" value="" style="endArrow=none;html=1;rounded=0;strokeColor=#FFF2CC;entryX=-0.089;entryY=0.477;entryDx=0;entryDy=0;entryPerimeter=0;" edge="1" parent="1" target="Wl-ILKXg40PPsVRRGT6P-530">
          <mxGeometry width="50" height="50" relative="1" as="geometry">
            <mxPoint x="1361.77" y="537.22" as="sourcePoint" />
            <mxPoint x="1423.77" y="537.78" as="targetPoint" />
          </mxGeometry>
        </mxCell>
        <mxCell id="Wl-ILKXg40PPsVRRGT6P-559" value="" style="endArrow=none;html=1;rounded=0;strokeColor=#E1D5E7;" edge="1" parent="1">
          <mxGeometry width="50" height="50" relative="1" as="geometry">
            <mxPoint x="1289.32" y="557.4300000000001" as="sourcePoint" />
            <mxPoint x="1359.32" y="557.4300000000001" as="targetPoint" />
          </mxGeometry>
        </mxCell>
        <mxCell id="Wl-ILKXg40PPsVRRGT6P-560" value="" style="endArrow=none;html=1;rounded=0;strokeColor=#E1D5E7;entryX=0;entryY=0.5;entryDx=0;entryDy=0;" edge="1" parent="1" target="Wl-ILKXg40PPsVRRGT6P-528">
          <mxGeometry width="50" height="50" relative="1" as="geometry">
            <mxPoint x="1361.77" y="557.4300000000001" as="sourcePoint" />
            <mxPoint x="1431.77" y="557.4300000000001" as="targetPoint" />
          </mxGeometry>
        </mxCell>
        <mxCell id="Wl-ILKXg40PPsVRRGT6P-561" value="" style="endArrow=none;html=1;rounded=0;strokeColor=#F8CECC;entryX=0;entryY=0.5;entryDx=0;entryDy=0;" edge="1" parent="1" target="Wl-ILKXg40PPsVRRGT6P-543">
          <mxGeometry width="50" height="50" relative="1" as="geometry">
            <mxPoint x="1289.32" y="577.41" as="sourcePoint" />
            <mxPoint x="1369.32" y="577.41" as="targetPoint" />
          </mxGeometry>
        </mxCell>
        <mxCell id="Wl-ILKXg40PPsVRRGT6P-562" value="" style="endArrow=none;html=1;rounded=0;strokeColor=#F8CECC;entryX=0;entryY=0.5;entryDx=0;entryDy=0;" edge="1" parent="1" target="Wl-ILKXg40PPsVRRGT6P-532">
          <mxGeometry width="50" height="50" relative="1" as="geometry">
            <mxPoint x="1361.77" y="577.21" as="sourcePoint" />
            <mxPoint x="1423.77" y="577.8" as="targetPoint" />
          </mxGeometry>
        </mxCell>
        <mxCell id="Wl-ILKXg40PPsVRRGT6P-563" value="" style="endArrow=none;html=1;rounded=0;strokeColor=#DAE8FC;entryX=0;entryY=0.5;entryDx=0;entryDy=0;" edge="1" parent="1" target="Wl-ILKXg40PPsVRRGT6P-546">
          <mxGeometry width="50" height="50" relative="1" as="geometry">
            <mxPoint x="1289.32" y="597.42" as="sourcePoint" />
            <mxPoint x="1369.32" y="597.42" as="targetPoint" />
          </mxGeometry>
        </mxCell>
        <mxCell id="Wl-ILKXg40PPsVRRGT6P-564" value="" style="endArrow=none;html=1;rounded=0;strokeColor=#DAE8FC;" edge="1" parent="1">
          <mxGeometry width="50" height="50" relative="1" as="geometry">
            <mxPoint x="1361.77" y="620" as="sourcePoint" />
            <mxPoint x="1419.32" y="630" as="targetPoint" />
          </mxGeometry>
        </mxCell>
        <mxCell id="Wl-ILKXg40PPsVRRGT6P-565" value="" style="endArrow=none;html=1;rounded=0;strokeColor=#60A917;entryX=0;entryY=0.5;entryDx=0;entryDy=0;" edge="1" parent="1" target="Wl-ILKXg40PPsVRRGT6P-545">
          <mxGeometry width="50" height="50" relative="1" as="geometry">
            <mxPoint x="1290.77" y="620" as="sourcePoint" />
            <mxPoint x="1340.77" y="570" as="targetPoint" />
          </mxGeometry>
        </mxCell>
        <mxCell id="Wl-ILKXg40PPsVRRGT6P-566" value="" style="endArrow=none;html=1;rounded=0;strokeColor=#60A917;entryX=0;entryY=0.5;entryDx=0;entryDy=0;exitX=1;exitY=0.5;exitDx=0;exitDy=0;" edge="1" parent="1" source="Wl-ILKXg40PPsVRRGT6P-545" target="Wl-ILKXg40PPsVRRGT6P-534">
          <mxGeometry width="50" height="50" relative="1" as="geometry">
            <mxPoint x="1361.77" y="595.5" as="sourcePoint" />
            <mxPoint x="1422.32" y="572.5" as="targetPoint" />
          </mxGeometry>
        </mxCell>
        <mxCell id="Wl-ILKXg40PPsVRRGT6P-567" value="" style="endArrow=none;html=1;rounded=0;strokeColor=#0050EF;" edge="1" parent="1">
          <mxGeometry width="50" height="50" relative="1" as="geometry">
            <mxPoint x="1409.32" y="630" as="sourcePoint" />
            <mxPoint x="1437.45" y="620" as="targetPoint" />
          </mxGeometry>
        </mxCell>
        <mxCell id="Wl-ILKXg40PPsVRRGT6P-568" value="1" style="text;html=1;strokeColor=none;fillColor=none;align=left;verticalAlign=middle;whiteSpace=wrap;rounded=0;strokeWidth=1;fontSize=16;" vertex="1" parent="1">
          <mxGeometry x="1219.32" y="522.5" width="10" height="30" as="geometry" />
        </mxCell>
        <mxCell id="Wl-ILKXg40PPsVRRGT6P-569" value="2" style="text;html=1;strokeColor=none;fillColor=none;align=left;verticalAlign=middle;whiteSpace=wrap;rounded=0;strokeWidth=1;fontSize=16;" vertex="1" parent="1">
          <mxGeometry x="1219.32" y="542.5" width="10" height="30" as="geometry" />
        </mxCell>
        <mxCell id="Wl-ILKXg40PPsVRRGT6P-570" value="3" style="text;html=1;strokeColor=none;fillColor=none;align=left;verticalAlign=middle;whiteSpace=wrap;rounded=0;strokeWidth=1;fontSize=16;" vertex="1" parent="1">
          <mxGeometry x="1219.32" y="562.5" width="10" height="30" as="geometry" />
        </mxCell>
        <mxCell id="Wl-ILKXg40PPsVRRGT6P-571" value="4" style="text;html=1;strokeColor=none;fillColor=none;align=left;verticalAlign=middle;whiteSpace=wrap;rounded=0;strokeWidth=1;fontSize=16;" vertex="1" parent="1">
          <mxGeometry x="1219.32" y="582.5" width="10" height="30" as="geometry" />
        </mxCell>
        <mxCell id="Wl-ILKXg40PPsVRRGT6P-572" value="5" style="text;html=1;strokeColor=none;fillColor=none;align=left;verticalAlign=middle;whiteSpace=wrap;rounded=0;strokeWidth=1;fontSize=16;" vertex="1" parent="1">
          <mxGeometry x="1219.32" y="602.5" width="10" height="30" as="geometry" />
        </mxCell>
        <mxCell id="Wl-ILKXg40PPsVRRGT6P-574" value="" style="rounded=1;whiteSpace=wrap;html=1;" vertex="1" parent="1">
          <mxGeometry x="1223" y="678" width="287" height="172" as="geometry" />
        </mxCell>
        <mxCell id="Wl-ILKXg40PPsVRRGT6P-575" value="" style="endArrow=classic;startArrow=classic;html=1;rounded=0;" edge="1" parent="1">
          <mxGeometry width="50" height="50" relative="1" as="geometry">
            <mxPoint x="1496.75" y="814" as="sourcePoint" />
            <mxPoint x="1496.75" y="714" as="targetPoint" />
          </mxGeometry>
        </mxCell>
        <mxCell id="Wl-ILKXg40PPsVRRGT6P-576" value="6 месяцев" style="rounded=0;whiteSpace=wrap;html=1;" vertex="1" parent="1">
          <mxGeometry x="1242" y="750" width="238" height="30" as="geometry" />
        </mxCell>
        <mxCell id="Wl-ILKXg40PPsVRRGT6P-577" value="&lt;font style=&quot;font-size: 12px;&quot;&gt;5 месяцев&lt;/font&gt;" style="text;html=1;strokeColor=none;fillColor=none;align=center;verticalAlign=middle;whiteSpace=wrap;rounded=0;strokeWidth=1;fontSize=16;" vertex="1" parent="1">
          <mxGeometry x="1281" y="720" width="160" height="30" as="geometry" />
        </mxCell>
        <mxCell id="Wl-ILKXg40PPsVRRGT6P-578" value="&lt;span style=&quot;font-size: 12px;&quot;&gt;4 месяца&lt;/span&gt;" style="text;html=1;strokeColor=none;fillColor=none;align=center;verticalAlign=middle;whiteSpace=wrap;rounded=0;strokeWidth=1;fontSize=16;" vertex="1" parent="1">
          <mxGeometry x="1282.75" y="690" width="160" height="30" as="geometry" />
        </mxCell>
        <mxCell id="Wl-ILKXg40PPsVRRGT6P-579" value="&lt;font style=&quot;font-size: 12px;&quot;&gt;7 месяцев&lt;/font&gt;" style="text;html=1;strokeColor=none;fillColor=none;align=center;verticalAlign=middle;whiteSpace=wrap;rounded=0;strokeWidth=1;fontSize=16;" vertex="1" parent="1">
          <mxGeometry x="1281" y="780" width="160" height="30" as="geometry" />
        </mxCell>
        <mxCell id="Wl-ILKXg40PPsVRRGT6P-580" value="&lt;font style=&quot;font-size: 12px;&quot;&gt;8 месяцев&lt;/font&gt;" style="text;html=1;strokeColor=none;fillColor=none;align=center;verticalAlign=middle;whiteSpace=wrap;rounded=0;strokeWidth=1;fontSize=16;" vertex="1" parent="1">
          <mxGeometry x="1282.75" y="810" width="160" height="30" as="geometry" />
        </mxCell>
        <mxCell id="Wl-ILKXg40PPsVRRGT6P-581" value="Готово" style="rounded=1;whiteSpace=wrap;html=1;fillColor=#d5e8d4;strokeColor=#82b366;" vertex="1" parent="1">
          <mxGeometry x="1429.68" y="690" width="56" height="30" as="geometry" />
        </mxCell>
        <mxCell id="Wl-ILKXg40PPsVRRGT6P-585" value="" style="endArrow=classic;startArrow=classic;html=1;rounded=0;" edge="1" parent="1">
          <mxGeometry width="50" height="50" relative="1" as="geometry">
            <mxPoint x="859.5" y="320" as="sourcePoint" />
            <mxPoint x="1039.5" y="320" as="targetPoint" />
          </mxGeometry>
        </mxCell>
        <mxCell id="Wl-ILKXg40PPsVRRGT6P-586" value="" style="endArrow=classic;html=1;rounded=0;" edge="1" parent="1" target="Wl-ILKXg40PPsVRRGT6P-416">
          <mxGeometry width="50" height="50" relative="1" as="geometry">
            <mxPoint x="934" y="780" as="sourcePoint" />
            <mxPoint x="900" y="730" as="targetPoint" />
          </mxGeometry>
        </mxCell>
        <mxCell id="Wl-ILKXg40PPsVRRGT6P-587" value="Можно листать" style="text;html=1;strokeColor=none;fillColor=none;align=left;verticalAlign=middle;whiteSpace=wrap;rounded=0;strokeWidth=1;fontSize=16;" vertex="1" parent="1">
          <mxGeometry x="860" y="780" width="160" height="30" as="geometry" />
        </mxCell>
        <mxCell id="Wl-ILKXg40PPsVRRGT6P-588" value="" style="endArrow=classic;startArrow=classic;html=1;rounded=0;" edge="1" parent="1">
          <mxGeometry width="50" height="50" relative="1" as="geometry">
            <mxPoint x="800.5" y="285" as="sourcePoint" />
            <mxPoint x="800.5" y="185" as="targetPoint" />
          </mxGeometry>
        </mxCell>
        <mxCell id="Wl-ILKXg40PPsVRRGT6P-589" value="&lt;font style=&quot;font-size: 17px;&quot;&gt;Ограничения по оси:&lt;/font&gt;&lt;div style=&quot;font-size: 17px;&quot;&gt;&lt;font style=&quot;font-size: 17px;&quot;&gt;по времени: согласно периоду&lt;/font&gt;&lt;/div&gt;&lt;div style=&quot;font-size: 17px;&quot;&gt;&lt;font style=&quot;font-size: 17px;&quot;&gt;по номеру: топ 10&lt;/font&gt;&lt;/div&gt;" style="text;html=1;strokeColor=none;fillColor=none;align=left;verticalAlign=middle;whiteSpace=wrap;rounded=0;strokeWidth=1;fontSize=16;" vertex="1" parent="1">
          <mxGeometry x="779.88" y="820" width="340.25" height="30" as="geometry" />
        </mxCell>
        <mxCell id="Wl-ILKXg40PPsVRRGT6P-590" value="&lt;span style=&quot;color: rgb(0, 0, 0); font-family: Helvetica; font-size: 12px; font-style: normal; font-variant-ligatures: normal; font-variant-caps: normal; font-weight: 400; letter-spacing: normal; orphans: 2; text-align: left; text-indent: 0px; text-transform: none; widows: 2; word-spacing: 0px; -webkit-text-stroke-width: 0px; white-space: normal; background-color: rgb(251, 251, 251); text-decoration-thickness: initial; text-decoration-style: initial; text-decoration-color: initial; display: inline !important; float: none;&quot;&gt;октябрь&lt;/span&gt;" style="text;whiteSpace=wrap;html=1;" vertex="1" parent="1">
          <mxGeometry x="1418.22" y="637.5" width="70" height="40" as="geometry" />
        </mxCell>
        <mxCell id="Wl-ILKXg40PPsVRRGT6P-591" value="" style="rounded=0;whiteSpace=wrap;html=1;" vertex="1" parent="1">
          <mxGeometry x="1034.2" y="56" width="39" height="40" as="geometry" />
        </mxCell>
        <mxCell id="Wl-ILKXg40PPsVRRGT6P-592" value="" style="endArrow=classic;html=1;rounded=0;" edge="1" parent="1">
          <mxGeometry width="50" height="50" relative="1" as="geometry">
            <mxPoint x="1053.62" y="76" as="sourcePoint" />
            <mxPoint x="1053.62" y="46" as="targetPoint" />
          </mxGeometry>
        </mxCell>
        <mxCell id="Wl-ILKXg40PPsVRRGT6P-593" value="" style="rounded=0;whiteSpace=wrap;html=1;" vertex="1" parent="1">
          <mxGeometry x="1448.75" y="410" width="39" height="40" as="geometry" />
        </mxCell>
        <mxCell id="Wl-ILKXg40PPsVRRGT6P-594" value="" style="endArrow=classic;html=1;rounded=0;" edge="1" parent="1">
          <mxGeometry width="50" height="50" relative="1" as="geometry">
            <mxPoint x="1468.17" y="430" as="sourcePoint" />
            <mxPoint x="1468.17" y="400" as="targetPoint" />
          </mxGeometry>
        </mxCell>
        <mxCell id="Wl-ILKXg40PPsVRRGT6P-595" value="" style="endArrow=classic;html=1;rounded=0;entryX=0.188;entryY=0.041;entryDx=0;entryDy=0;entryPerimeter=0;" edge="1" parent="1" target="Wl-ILKXg40PPsVRRGT6P-591">
          <mxGeometry width="50" height="50" relative="1" as="geometry">
            <mxPoint x="1040" y="-50" as="sourcePoint" />
            <mxPoint x="1094.5" y="-100" as="targetPoint" />
          </mxGeometry>
        </mxCell>
        <mxCell id="Wl-ILKXg40PPsVRRGT6P-596" value="Поделиться выведенным в виде pdf файла" style="text;html=1;strokeColor=none;fillColor=none;align=center;verticalAlign=middle;whiteSpace=wrap;rounded=0;strokeWidth=1;fontSize=16;" vertex="1" parent="1">
          <mxGeometry x="893.3" y="-80" width="360.5" height="30" as="geometry" />
        </mxCell>
        <mxCell id="Wl-ILKXg40PPsVRRGT6P-597" value="" style="endArrow=classic;html=1;rounded=0;entryX=0.908;entryY=1.004;entryDx=0;entryDy=0;entryPerimeter=0;exitX=0.009;exitY=0.35;exitDx=0;exitDy=0;exitPerimeter=0;" edge="1" parent="1" source="Wl-ILKXg40PPsVRRGT6P-581" target="Wl-ILKXg40PPsVRRGT6P-332">
          <mxGeometry width="50" height="50" relative="1" as="geometry">
            <mxPoint x="1242" y="706.25" as="sourcePoint" />
            <mxPoint x="1162" y="703.75" as="targetPoint" />
          </mxGeometry>
        </mxCell>
        <mxCell id="Wl-ILKXg40PPsVRRGT6P-598" value="&lt;span style=&quot;font-size: 17px;&quot;&gt;Возвращаемся назад после нажатия&lt;/span&gt;" style="text;html=1;strokeColor=none;fillColor=none;align=left;verticalAlign=middle;whiteSpace=wrap;rounded=0;strokeWidth=1;fontSize=16;" vertex="1" parent="1">
          <mxGeometry x="1024.5" y="690" width="199.75" height="30" as="geometry" />
        </mxCell>
        <mxCell id="Wl-ILKXg40PPsVRRGT6P-599" value="Шаг назад" style="text;html=1;strokeColor=none;fillColor=none;align=left;verticalAlign=middle;whiteSpace=wrap;rounded=0;strokeWidth=1;fontSize=16;" vertex="1" parent="1">
          <mxGeometry x="640.5" y="65" width="160" height="30" as="geometry" />
        </mxCell>
        <mxCell id="Wl-ILKXg40PPsVRRGT6P-601" value="&lt;font style=&quot;font-size: 14px;&quot;&gt;1 месяц&lt;/font&gt;" style="rounded=1;whiteSpace=wrap;html=1;fillColor=#d5e8d4;strokeColor=#82b366;" vertex="1" parent="1">
          <mxGeometry x="1249.4299999999998" y="-61" width="80.5" height="30" as="geometry" />
        </mxCell>
        <mxCell id="Wl-ILKXg40PPsVRRGT6P-602" value="&lt;font style=&quot;font-size: 14px;&quot;&gt;3 месяца&lt;/font&gt;" style="rounded=1;whiteSpace=wrap;html=1;" vertex="1" parent="1">
          <mxGeometry x="1349.1799999999998" y="-61" width="80.5" height="30" as="geometry" />
        </mxCell>
        <mxCell id="Wl-ILKXg40PPsVRRGT6P-603" value="&lt;font style=&quot;font-size: 14px;&quot;&gt;Свой&lt;/font&gt;" style="rounded=1;whiteSpace=wrap;html=1;" vertex="1" parent="1">
          <mxGeometry x="1449.1799999999998" y="-61" width="80.5" height="30" as="geometry" />
        </mxCell>
      </root>
    </mxGraphModel>
  </diagram>
</mxfile>
